<svg width="198" height="41" fill="none" xmlns="http://www.w3.org/2000/svg">
  <path fill="#009FE3" d="M0 0h40v40H0z"/>
  <path fill-rule="evenodd" clip-rule="evenodd"
        d="M21.818 14.546v4.527l-7.273-3.644V29.09l-3.636-1.818V12.727l3.612-1.818 7.297 3.636zm-3.637 10.909v-4.528l7.273 3.644V10.91l3.637 1.818v14.546l-3.613 1.818-7.297-3.636z"
        fill="#fff"/>
  <path
    d="M63.01 14.832v-3.75h4.052V29h-4.58l-4.379-7.147c-1.342-2.231-2.273-3.859-2.793-4.882.067 2.298.1 5.058.1 8.28V29H51.36V11.082h4.58l4.379 7.147c1.258 2.08 2.19 3.725 2.793 4.933-.067-2.332-.1-5.11-.1-8.33zM73.29 29h-4.253V11.082h4.253V29zm10.15.403c-2.667 0-4.823-.848-6.467-2.542-1.644-1.695-2.466-3.968-2.466-6.82 0-2.886.805-5.167 2.415-6.845 1.611-1.678 3.784-2.517 6.518-2.517 2.215 0 4.094.588 5.638 1.762 1.577 1.191 2.525 2.877 2.843 5.058h-4.303c-.269-1.006-.772-1.778-1.51-2.315-.721-.554-1.61-.83-2.668-.83-1.442 0-2.558.494-3.347 1.484-.771.99-1.157 2.391-1.157 4.203 0 1.812.386 3.213 1.157 4.203.789.99 1.905 1.484 3.347 1.484 1.108 0 2.047-.318 2.819-.956.772-.637 1.258-1.527 1.46-2.667h4.253c-.269 2.315-1.183 4.11-2.743 5.385-1.578 1.275-3.507 1.913-5.789 1.913zm24.794-2.567c-1.694 1.711-3.909 2.567-6.644 2.567-2.734 0-4.949-.856-6.644-2.567-1.694-1.728-2.541-3.993-2.541-6.795s.847-5.067 2.541-6.795c1.695-1.711 3.91-2.567 6.644-2.567 2.735 0 4.95.856 6.644 2.567 1.695 1.728 2.542 3.993 2.542 6.795s-.847 5.067-2.542 6.795zm-10.091-2.643c.855 1.007 2.004 1.51 3.447 1.51 1.426 0 2.584-.503 3.473-1.51.873-.99 1.309-2.374 1.309-4.152s-.436-3.163-1.309-4.152c-.889-1.007-2.047-1.51-3.473-1.51-1.443 0-2.592.503-3.447 1.51-.873.99-1.31 2.374-1.31 4.152s.437 3.162 1.31 4.152zm25.022-5.486 2.341-7.625h6.367V29h-4.052v-5.26c0-3.338.05-6.224.151-8.657a70.859 70.859 0 0 1-1.208 4.077L123.668 29h-3.473l-3.096-9.84a143.473 143.473 0 0 1-1.182-4.052c.084 2.82.125 5.696.125 8.632V29h-4.051V11.082h6.367l2.365 7.7c.319 1.091.73 2.576 1.233 4.455.403-1.594.806-3.104 1.208-4.53zM150.662 29h-4.505l-1.057-3.12h-7.449L136.619 29h-4.353l6.593-17.918h5.058L150.662 29zm-10.796-9.74-1.032 3.071h5.058l-1.032-3.07c-.318-.906-.822-2.416-1.51-4.53a494.437 494.437 0 0 1-1.484 4.53zm7.75-8.178h15.275v3.8h-5.511V29h-4.278V14.882h-5.486v-3.8zM167.972 29h-4.253V11.082h4.253V29zm10.151.403c-2.668 0-4.824-.848-6.468-2.542-1.644-1.695-2.466-3.968-2.466-6.82 0-2.886.805-5.167 2.416-6.845 1.61-1.678 3.783-2.517 6.518-2.517 2.214 0 4.093.588 5.637 1.762 1.577 1.191 2.525 2.877 2.844 5.058H182.3c-.268-1.006-.771-1.778-1.51-2.315-.721-.554-1.61-.83-2.667-.83-1.443 0-2.559.494-3.347 1.484-.772.99-1.158 2.391-1.158 4.203 0 1.812.386 3.213 1.158 4.203.788.99 1.904 1.484 3.347 1.484 1.107 0 2.047-.318 2.818-.956.772-.637 1.259-1.527 1.46-2.667h4.253c-.269 2.315-1.183 4.11-2.743 5.385-1.577 1.275-3.507 1.913-5.788 1.913z"
    fill="#009FE3"/>
</svg>
