<svg width="448" height="448" xmlns="http://www.w3.org/2000/svg" xmlns:xlink="http://www.w3.org/1999/xlink" xml:space="preserve" overflow="hidden"><g><path d="M404.199 227.103C404.199 326.315 323.775 406.738 224.563 406.738 125.354 406.738 44.9277 326.315 44.9277 227.103 44.9277 127.894 125.354 47.4668 224.563 47.4668 323.775 47.4668 404.199 127.894 404.199 227.103Z" fill="#D7EEF4"/><path d="M80.5646 252.604C80.5646 253.048 80.1647 253.406 79.6746 253.406 79.1815 253.406 78.7846 253.048 78.7846 252.604 78.7846 252.164 79.1815 251.805 79.6746 251.805 80.1647 251.805 80.5646 252.164 80.5646 252.604Z" fill="#6F8A91"/><path d="M80.1384 252.604C80.1384 252.833 79.9362 253.021 79.6836 253.021 79.4341 253.021 79.2281 252.833 79.2281 252.604 79.2281 252.375 79.4341 252.19 79.6836 252.19 79.9362 252.19 80.1384 252.375 80.1384 252.604Z" fill="#374548"/><path d="M78.1946 244.809C78.1946 245.251 77.7954 245.61 77.3023 245.61 76.8122 245.61 76.4123 245.251 76.4123 244.809 76.4123 244.368 76.8122 244.01 77.3023 244.01 77.7954 244.01 78.1946 244.368 78.1946 244.809Z" fill="#6F8A91"/><path d="M77.7691 244.809C77.7691 245.037 77.5662 245.225 77.3136 245.225 77.0618 245.225 76.8588 245.037 76.8588 244.809 76.8588 244.579 77.0618 244.395 77.3136 244.395 77.5662 244.395 77.7691 244.579 77.7691 244.809Z" fill="#374548"/><path d="M77.7135 236.519C77.7135 236.96 77.3136 237.318 76.8235 237.318 76.3304 237.318 75.9313 236.96 75.9313 236.519 75.9313 236.076 76.3304 235.718 76.8235 235.718 77.3136 235.718 77.7135 236.076 77.7135 236.519Z" fill="#6F8A91"/><path d="M77.2873 236.519C77.2873 236.749 77.0851 236.933 76.8325 236.933 76.58 236.933 76.377 236.749 76.377 236.519 76.377 236.288 76.58 236.103 76.8325 236.103 77.0851 236.103 77.2873 236.288 77.2873 236.519Z" fill="#374548"/><path d="M77.6255 227.998C77.6255 228.439 77.2257 228.797 76.7326 228.797 76.2425 228.797 75.8426 228.439 75.8426 227.998 75.8426 227.555 76.2425 227.197 76.7326 227.197 77.2257 227.197 77.6255 227.555 77.6255 227.998Z" fill="#6F8A91"/><path d="M77.1993 227.998C77.1993 228.228 76.9971 228.412 76.7446 228.412 76.492 228.412 76.2891 228.228 76.2891 227.998 76.2891 227.77 76.492 227.582 76.7446 227.582 76.9971 227.582 77.1993 227.77 77.1993 227.998Z" fill="#374548"/><path d="M77.6661 219.636C77.6661 220.079 77.267 220.438 76.7739 220.438 76.2831 220.438 75.8839 220.079 75.8839 219.636 75.8839 219.195 76.2831 218.838 76.7739 218.838 77.267 218.838 77.6661 219.195 77.6661 219.636Z" fill="#6F8A91"/><path d="M77.2407 219.636C77.2407 219.865 77.0347 220.053 76.7852 220.053 76.5326 220.053 76.3274 219.865 76.3274 219.636 76.3274 219.407 76.5326 219.222 76.7852 219.222 77.0347 219.222 77.2407 219.407 77.2407 219.636Z" fill="#374548"/><path d="M77.6661 211.142C77.6661 211.582 77.267 211.94 76.7739 211.94 76.2831 211.94 75.8839 211.582 75.8839 211.142 75.8839 210.701 76.2831 210.343 76.7739 210.343 77.267 210.343 77.6661 210.701 77.6661 211.142Z" fill="#6F8A91"/><path d="M77.2407 211.142C77.2407 211.37 77.0347 211.555 76.7852 211.555 76.5326 211.555 76.3274 211.37 76.3274 211.142 76.3274 210.913 76.5326 210.728 76.7852 210.728 77.0347 210.728 77.2407 210.913 77.2407 211.142Z" fill="#374548"/><path d="M77.6661 202.568C77.6661 203.011 77.267 203.37 76.7739 203.37 76.2831 203.37 75.8839 203.011 75.8839 202.568 75.8839 202.127 76.2831 201.769 76.7739 201.769 77.267 201.769 77.6661 202.127 77.6661 202.568Z" fill="#6F8A91"/><path d="M77.2407 202.568C77.2407 202.797 77.0347 202.985 76.7852 202.985 76.5326 202.985 76.3274 202.797 76.3274 202.568 76.3274 202.339 76.5326 202.154 76.7852 202.154 77.0347 202.154 77.2407 202.339 77.2407 202.568Z" fill="#374548"/><path d="M78.2269 194.173C78.2269 194.613 77.8278 194.972 77.3346 194.972 76.8438 194.972 76.4447 194.613 76.4447 194.173 76.4447 193.732 76.8438 193.375 77.3346 193.375 77.8278 193.375 78.2269 193.732 78.2269 194.173Z" fill="#6F8A91"/><path d="M77.8014 194.173C77.8014 194.402 77.5955 194.587 77.3459 194.587 77.0934 194.587 76.8912 194.402 76.8912 194.173 76.8912 193.944 77.0934 193.759 77.3459 193.759 77.5955 193.759 77.8014 193.944 77.8014 194.173Z" fill="#374548"/><path d="M80.5879 186.289C80.5879 186.73 80.1888 187.088 79.6949 187.088 79.2048 187.088 78.8057 186.73 78.8057 186.289 78.8057 185.846 79.2048 185.488 79.6949 185.488 80.1888 185.488 80.5879 185.846 80.5879 186.289Z" fill="#6F8A91"/><path d="M80.1624 186.289C80.1624 186.519 79.9595 186.703 79.7069 186.703 79.4544 186.703 79.2522 186.519 79.2522 186.289 79.2522 186.06 79.4544 185.872 79.7069 185.872 79.9595 185.872 80.1624 186.06 80.1624 186.289Z" fill="#374548"/><path d="M84.8574 179.119C84.8574 179.563 84.4575 179.92 83.9644 179.92 83.4743 179.92 83.0752 179.563 83.0752 179.119 83.0752 178.679 83.4743 178.32 83.9644 178.32 84.4575 178.32 84.8574 178.679 84.8574 179.119Z" fill="#6F8A91"/><path d="M84.4312 179.119C84.4312 179.348 84.226 179.536 83.9765 179.536 83.7239 179.536 83.5179 179.348 83.5179 179.119 83.5179 178.89 83.7239 178.705 83.9765 178.705 84.226 178.705 84.4312 178.89 84.4312 179.119Z" fill="#374548"/><path d="M90.483 173.261C90.483 173.705 90.0838 174.063 89.593 174.063 89.0999 174.063 88.7037 173.705 88.7037 173.261 88.7037 172.821 89.0999 172.463 89.593 172.463 90.0838 172.463 90.483 172.821 90.483 173.261Z" fill="#6F8A91"/><path d="M90.0575 173.261C90.0575 173.494 89.8546 173.678 89.602 173.678 89.3524 173.678 89.1472 173.494 89.1472 173.261 89.1472 173.032 89.3524 172.847 89.602 172.847 89.8546 172.847 90.0575 173.032 90.0575 173.261Z" fill="#374548"/><path d="M97.8907 168.76C97.8907 169.201 97.4916 169.559 97.0015 169.559 96.5084 169.559 96.1085 169.201 96.1085 168.76 96.1085 168.317 96.5084 167.958 97.0015 167.958 97.4916 167.958 97.8907 168.317 97.8907 168.76Z" fill="#6F8A91"/><path d="M97.4653 168.76C97.4653 168.989 97.2631 169.174 97.0105 169.174 96.761 169.174 96.555 168.989 96.555 168.76 96.555 168.531 96.761 168.343 97.0105 168.343 97.2631 168.343 97.4653 168.531 97.4653 168.76Z" fill="#374548"/><path d="M105.831 166.256C105.831 166.696 105.432 167.054 104.941 167.054 104.448 167.054 104.048 166.696 104.048 166.256 104.048 165.812 104.448 165.454 104.941 165.454 105.432 165.454 105.831 165.812 105.831 166.256Z" fill="#6F8A91"/><path d="M105.405 166.256C105.405 166.484 105.202 166.669 104.95 166.669 104.697 166.669 104.495 166.484 104.495 166.256 104.495 166.026 104.697 165.838 104.95 165.838 105.202 165.838 105.405 166.026 105.405 166.256Z" fill="#374548"/><path d="M114.27 165.709C114.27 166.153 113.87 166.511 113.38 166.511 112.887 166.511 112.487 166.153 112.487 165.709 112.487 165.269 112.887 164.911 113.38 164.911 113.87 164.911 114.27 165.269 114.27 165.709Z" fill="#6F8A91"/><path d="M113.844 165.709C113.844 165.938 113.641 166.126 113.389 166.126 113.139 166.126 112.933 165.938 112.933 165.709 112.933 165.48 113.139 165.295 113.389 165.295 113.641 165.295 113.844 165.48 113.844 165.709Z" fill="#374548"/><path d="M83.542 196.716C82.6994 203.921 82.9016 218.057 82.9016 218.057 82.9016 218.057 82.3611 233.944 83.3714 241.619 85.591 258.494 97.5743 264.411 106.697 266.742L117.611 266.71 128.513 266.657C140.725 263.803 151.803 254.929 152.094 242.474L152.179 217.205 152.094 195.521C152.053 184.416 143.57 171.673 128.874 171.444L117.86 171.273 108.811 171.188C95.5417 171.065 85.3595 181.122 83.542 196.716Z" fill="#6F8A91"/><path d="M121.742 164.491 120.588 165.521" fill="#6F8A91"/><path d="M122.632 165.592C122.632 166.035 122.232 166.393 121.742 166.393 121.249 166.393 120.849 166.035 120.849 165.592 120.849 165.151 121.249 164.793 121.742 164.793 122.232 164.793 122.632 165.151 122.632 165.592Z" fill="#6F8A91"/><path d="M122.206 165.592C122.206 165.821 122.004 166.009 121.751 166.009 121.502 166.009 121.296 165.821 121.296 165.592 121.296 165.363 121.502 165.178 121.751 165.178 122.004 165.178 122.206 165.363 122.206 165.592Z" fill="#374548"/><path d="M131.144 166.217C131.144 166.661 130.745 167.019 130.254 167.019 129.761 167.019 129.362 166.661 129.362 166.217 129.362 165.777 129.761 165.418 130.254 165.418 130.745 165.418 131.144 165.777 131.144 166.217Z" fill="#6F8A91"/><path d="M130.718 166.217C130.718 166.447 130.516 166.634 130.263 166.634 130.011 166.634 129.808 166.447 129.808 166.217 129.808 165.988 130.011 165.803 130.263 165.803 130.516 165.803 130.718 165.988 130.718 166.217Z" fill="#374548"/><path d="M139.325 168.728C139.325 169.168 138.925 169.526 138.435 169.526 137.941 169.526 137.542 169.168 137.542 168.728 137.542 168.284 137.941 167.926 138.435 167.926 138.925 167.926 139.325 168.284 139.325 168.728Z" fill="#6F8A91"/><path d="M138.898 168.728C138.898 168.956 138.696 169.142 138.444 169.142 138.191 169.142 137.988 168.956 137.988 168.728 137.988 168.496 138.191 168.311 138.444 168.311 138.696 168.311 138.898 168.496 138.898 168.728Z" fill="#374548"/><path d="M146.565 172.967C146.565 173.408 146.166 173.766 145.675 173.766 145.182 173.766 144.783 173.408 144.783 172.967 144.783 172.527 145.182 172.169 145.675 172.169 146.166 172.169 146.565 172.527 146.565 172.967Z" fill="#6F8A91"/><path d="M146.139 172.967C146.139 173.197 145.936 173.382 145.684 173.382 145.432 173.382 145.229 173.197 145.229 172.967 145.229 172.739 145.432 172.554 145.684 172.554 145.936 172.554 146.139 172.739 146.139 172.967Z" fill="#374548"/><path d="M152.619 178.834C152.619 179.275 152.22 179.633 151.727 179.633 151.236 179.633 150.837 179.275 150.837 178.834 150.837 178.394 151.236 178.036 151.727 178.036 152.22 178.036 152.619 178.394 152.619 178.834Z" fill="#6F8A91"/><path d="M152.194 178.834C152.194 179.063 151.988 179.248 151.739 179.248 151.486 179.248 151.281 179.063 151.281 178.834 151.281 178.605 151.486 178.42 151.739 178.42 151.988 178.42 152.194 178.605 152.194 178.834Z" fill="#374548"/><path d="M157.088 186.025C157.088 186.465 156.689 186.824 156.196 186.824 155.706 186.824 155.306 186.465 155.306 186.025 155.306 185.582 155.706 185.223 156.196 185.223 156.689 185.223 157.088 185.582 157.088 186.025Z" fill="#6F8A91"/><path d="M156.663 186.025C156.663 186.254 156.458 186.439 156.207 186.439 155.955 186.439 155.752 186.254 155.752 186.025 155.752 185.796 155.955 185.608 156.207 185.608 156.458 185.608 156.663 185.796 156.663 186.025Z" fill="#374548"/><path d="M159.708 194.108C159.708 194.549 159.309 194.907 158.815 194.907 158.325 194.907 157.926 194.549 157.926 194.108 157.926 193.665 158.325 193.307 158.815 193.307 159.309 193.307 159.708 193.665 159.708 194.108Z" fill="#6F8A91"/><path d="M159.282 194.108C159.282 194.337 159.076 194.522 158.827 194.522 158.574 194.522 158.371 194.337 158.371 194.108 158.371 193.88 158.574 193.692 158.827 193.692 159.076 193.692 159.282 193.88 159.282 194.108Z" fill="#374548"/><path d="M160.353 202.438C160.353 202.879 159.954 203.237 159.461 203.237 158.97 203.237 158.571 202.879 158.571 202.438 158.571 201.996 158.97 201.637 159.461 201.637 159.954 201.637 160.353 201.996 160.353 202.438Z" fill="#6F8A91"/><path d="M159.928 202.438C159.928 202.668 159.722 202.852 159.473 202.852 159.22 202.852 159.018 202.668 159.018 202.438 159.018 202.207 159.22 202.022 159.473 202.022 159.722 202.022 159.928 202.207 159.928 202.438Z" fill="#374548"/><path d="M160.362 210.854C160.362 211.295 159.963 211.652 159.469 211.652 158.979 211.652 158.58 211.295 158.58 210.854 158.58 210.411 158.979 210.055 159.469 210.055 159.963 210.055 160.362 210.411 160.362 210.854Z" fill="#6F8A91"/><path d="M159.936 210.854C159.936 211.083 159.731 211.267 159.482 211.267 159.229 211.267 159.026 211.083 159.026 210.854 159.026 210.625 159.229 210.44 159.482 210.44 159.731 210.44 159.936 210.625 159.936 210.854Z" fill="#374548"/><path d="M160.398 219.48C160.398 219.924 160.001 220.282 159.508 220.282 159.018 220.282 158.619 219.924 158.619 219.48 158.619 219.04 159.018 218.682 159.508 218.682 160.001 218.682 160.398 219.04 160.398 219.48Z" fill="#6F8A91"/><path d="M159.975 219.48C159.975 219.713 159.769 219.897 159.52 219.897 159.267 219.897 159.061 219.713 159.061 219.48 159.061 219.252 159.267 219.067 159.52 219.067 159.769 219.067 159.975 219.252 159.975 219.48Z" fill="#374548"/><path d="M160.298 228.001C160.298 228.442 159.899 228.8 159.408 228.8 158.915 228.8 158.516 228.442 158.516 228.001 158.516 227.561 158.915 227.203 159.408 227.203 159.899 227.203 160.298 227.561 160.298 228.001Z" fill="#6F8A91"/><path d="M159.872 228.001C159.872 228.231 159.669 228.415 159.417 228.415 159.167 228.415 158.962 228.231 158.962 228.001 158.962 227.773 159.167 227.587 159.417 227.587 159.669 227.587 159.872 227.773 159.872 228.001Z" fill="#374548"/><path d="M160.178 236.561C160.178 237.001 159.778 237.359 159.288 237.359 158.794 237.359 158.395 237.001 158.395 236.561 158.395 236.12 158.794 235.762 159.288 235.762 159.778 235.762 160.178 236.12 160.178 236.561Z" fill="#6F8A91"/><path d="M159.751 236.561C159.751 236.79 159.549 236.975 159.297 236.975 159.044 236.975 158.841 236.79 158.841 236.561 158.841 236.331 159.044 236.146 159.297 236.146 159.549 236.146 159.751 236.331 159.751 236.561Z" fill="#374548"/><path d="M159.787 244.738C159.787 245.182 159.391 245.536 158.897 245.536 158.404 245.536 158.007 245.182 158.007 244.738 158.007 244.298 158.404 243.939 158.897 243.939 159.391 243.939 159.787 244.298 159.787 244.738Z" fill="#6F8A91"/><path d="M159.364 244.738C159.364 244.967 159.158 245.152 158.906 245.152 158.656 245.152 158.451 244.967 158.451 244.738 158.451 244.509 158.656 244.324 158.906 244.324 159.158 244.324 159.364 244.509 159.364 244.738Z" fill="#374548"/><path d="M156.994 252.554C156.994 252.995 156.598 253.353 156.105 253.353 155.612 253.353 155.215 252.995 155.215 252.554 155.215 252.111 155.612 251.756 156.105 251.756 156.598 251.756 156.994 252.111 156.994 252.554Z" fill="#6F8A91"/><path d="M156.572 252.554C156.572 252.783 156.366 252.968 156.114 252.968 155.864 252.968 155.659 252.783 155.659 252.554 155.659 252.326 155.864 252.141 156.114 252.141 156.366 252.141 156.572 252.326 156.572 252.554Z" fill="#374548"/><path d="M152.511 259.669C152.511 260.109 152.114 260.468 151.621 260.468 151.131 260.468 150.731 260.109 150.731 259.669 150.731 259.225 151.131 258.867 151.621 258.867 152.114 258.867 152.511 259.225 152.511 259.669Z" fill="#6F8A91"/><path d="M152.088 259.669C152.088 259.898 151.883 260.083 151.633 260.083 151.381 260.083 151.175 259.898 151.175 259.669 151.175 259.439 151.381 259.251 151.633 259.251 151.883 259.251 152.088 259.439 152.088 259.669Z" fill="#374548"/><path d="M146.518 265.242C146.518 265.685 146.122 266.041 145.628 266.041 145.138 266.041 144.739 265.685 144.739 265.242 144.739 264.801 145.138 264.443 145.628 264.443 146.122 264.443 146.518 264.801 146.518 265.242Z" fill="#6F8A91"/><path d="M146.095 265.242C146.095 265.471 145.89 265.656 145.64 265.656 145.388 265.656 145.182 265.471 145.182 265.242 145.182 265.012 145.388 264.827 145.64 264.827 145.89 264.827 146.095 265.012 146.095 265.242Z" fill="#374548"/><path d="M139.022 269.737C139.022 270.178 138.623 270.536 138.132 270.536 137.639 270.536 137.239 270.178 137.239 269.737 137.239 269.294 137.639 268.935 138.132 268.935 138.623 268.935 139.022 269.294 139.022 269.737Z" fill="#6F8A91"/><path d="M138.596 269.737C138.596 269.966 138.393 270.151 138.141 270.151 137.888 270.151 137.686 269.966 137.686 269.737 137.686 269.508 137.888 269.32 138.141 269.32 138.393 269.32 138.596 269.508 138.596 269.737Z" fill="#374548"/><path d="M131.024 272.098C131.024 272.541 130.624 272.9 130.131 272.9 129.641 272.9 129.242 272.541 129.242 272.098 129.242 271.657 129.641 271.299 130.131 271.299 130.624 271.299 131.024 271.657 131.024 272.098Z" fill="#6F8A91"/><path d="M130.598 272.098C130.598 272.327 130.392 272.515 130.143 272.515 129.89 272.515 129.687 272.327 129.687 272.098 129.687 271.869 129.89 271.684 130.143 271.684 130.392 271.684 130.598 271.869 130.598 272.098Z" fill="#374548"/><path d="M122.558 272.879C122.558 273.319 122.159 273.678 121.668 273.678 121.175 273.678 120.776 273.319 120.776 272.879 120.776 272.436 121.175 272.077 121.668 272.077 122.159 272.077 122.558 272.436 122.558 272.879Z" fill="#6F8A91"/><path d="M122.132 272.876C122.132 273.108 121.93 273.293 121.677 273.293 121.428 273.293 121.223 273.108 121.223 272.876 121.223 272.647 121.428 272.462 121.677 272.462 121.93 272.462 122.132 272.647 122.132 272.876Z" fill="#374548"/><path d="M114.14 272.703C114.14 273.146 113.744 273.504 113.25 273.504 112.76 273.504 112.36 273.146 112.36 272.703 112.36 272.262 112.76 271.904 113.25 271.904 113.744 271.904 114.14 272.262 114.14 272.703Z" fill="#6F8A91"/><path d="M113.717 272.703C113.717 272.935 113.512 273.12 113.262 273.12 113.01 273.12 112.804 272.935 112.804 272.703 112.804 272.473 113.01 272.289 113.262 272.289 113.512 272.289 113.717 272.473 113.717 272.703Z" fill="#374548"/><path d="M105.789 272.245C105.789 272.688 105.39 273.046 104.9 273.046 104.406 273.046 104.007 272.688 104.007 272.245 104.007 271.804 104.406 271.446 104.9 271.446 105.39 271.446 105.789 271.804 105.789 272.245Z" fill="#6F8A91"/><path d="M105.364 272.245C105.364 272.476 105.161 272.661 104.908 272.661 104.656 272.661 104.454 272.476 104.454 272.245 104.454 272.016 104.656 271.831 104.908 271.831 105.161 271.831 105.364 272.016 105.364 272.245Z" fill="#374548"/><path d="M97.8614 269.585C97.8614 270.024 97.4623 270.383 96.9722 270.383 96.4791 270.383 96.0822 270.024 96.0822 269.585 96.0822 269.144 96.4791 268.786 96.9722 268.786 97.4623 268.786 97.8614 269.144 97.8614 269.585Z" fill="#6F8A91"/><path d="M97.436 269.585C97.436 269.813 97.233 269.998 96.9812 269.998 96.7316 269.998 96.5257 269.813 96.5257 269.585 96.5257 269.355 96.7316 269.171 96.9812 269.171 97.233 269.171 97.436 269.355 97.436 269.585Z" fill="#374548"/><path d="M90.7182 265.453C90.7182 265.896 90.3183 266.255 89.8252 266.255 89.3352 266.255 88.9353 265.896 88.9353 265.453 88.9353 265.012 89.3352 264.654 89.8252 264.654 90.3183 264.654 90.7182 265.012 90.7182 265.453Z" fill="#6F8A91"/><path d="M90.292 265.453C90.292 265.685 90.0898 265.87 89.8373 265.87 89.5847 265.87 89.3818 265.685 89.3818 265.453 89.3818 265.224 89.5847 265.039 89.8373 265.039 90.0898 265.039 90.292 265.224 90.292 265.453Z" fill="#374548"/><path d="M84.7868 259.757C84.7868 260.197 84.3876 260.556 83.8968 260.556 83.4037 260.556 83.0045 260.197 83.0045 259.757 83.0045 259.313 83.4037 258.955 83.8968 258.955 84.3876 258.955 84.7868 259.313 84.7868 259.757Z" fill="#6F8A91"/><path d="M84.3606 259.757C84.3606 259.986 84.1584 260.171 83.9058 260.171 83.6532 260.171 83.451 259.986 83.451 259.757 83.451 259.528 83.6532 259.34 83.9058 259.34 84.1584 259.34 84.3606 259.528 84.3606 259.757Z" fill="#374548"/><path d="M184.751 254.941C184.751 255.382 184.351 255.74 183.858 255.74 183.368 255.74 182.968 255.382 182.968 254.941 182.968 254.498 183.368 254.14 183.858 254.14 184.351 254.14 184.751 254.498 184.751 254.941Z" fill="#6F8A91"/><path d="M184.325 254.941C184.325 255.171 184.122 255.356 183.87 255.356 183.617 255.356 183.415 255.171 183.415 254.941 183.415 254.712 183.617 254.524 183.87 254.524 184.122 254.524 184.325 254.712 184.325 254.941Z" fill="#374548"/><path d="M182.378 247.146C182.378 247.586 181.979 247.944 181.488 247.944 180.995 247.944 180.599 247.586 180.599 247.146 180.599 246.702 180.995 246.347 181.488 246.347 181.979 246.347 182.378 246.702 182.378 247.146Z" fill="#6F8A91"/><path d="M181.952 247.146C181.952 247.375 181.75 247.56 181.497 247.56 181.248 247.56 181.043 247.375 181.043 247.146 181.043 246.916 181.248 246.732 181.497 246.732 181.75 246.732 181.952 246.916 181.952 247.146Z" fill="#374548"/><path d="M181.9 238.854C181.9 239.294 181.5 239.652 181.007 239.652 180.516 239.652 180.117 239.294 180.117 238.854 180.117 238.413 180.516 238.055 181.007 238.055 181.5 238.055 181.9 238.413 181.9 238.854Z" fill="#6F8A91"/><path d="M181.474 238.854C181.474 239.082 181.268 239.267 181.019 239.267 180.766 239.267 180.564 239.082 180.564 238.854 180.564 238.625 180.766 238.44 181.019 238.44 181.268 238.44 181.474 238.625 181.474 238.854Z" fill="#374548"/><path d="M181.809 230.333C181.809 230.776 181.409 231.134 180.919 231.134 180.425 231.134 180.029 230.776 180.029 230.333 180.029 229.893 180.425 229.534 180.919 229.534 181.409 229.534 181.809 229.893 181.809 230.333Z" fill="#6F8A91"/><path d="M181.386 230.333C181.386 230.561 181.18 230.749 180.928 230.749 180.678 230.749 180.473 230.561 180.473 230.333 180.473 230.104 180.678 229.919 180.928 229.919 181.18 229.919 181.386 230.104 181.386 230.333Z" fill="#374548"/><path d="M181.85 221.974C181.85 222.414 181.451 222.772 180.96 222.772 180.467 222.772 180.068 222.414 180.068 221.974 180.068 221.533 180.467 221.175 180.96 221.175 181.451 221.175 181.85 221.533 181.85 221.974Z" fill="#6F8A91"/><path d="M181.424 221.974C181.424 222.202 181.221 222.387 180.969 222.387 180.716 222.387 180.513 222.202 180.513 221.974 180.513 221.744 180.716 221.559 180.969 221.559 181.221 221.559 181.424 221.744 181.424 221.974Z" fill="#374548"/><path d="M181.85 213.479C181.85 213.919 181.451 214.277 180.96 214.277 180.467 214.277 180.068 213.919 180.068 213.479 180.068 213.035 180.467 212.678 180.96 212.678 181.451 212.678 181.85 213.035 181.85 213.479Z" fill="#6F8A91"/><path d="M181.424 213.479C181.424 213.708 181.221 213.893 180.969 213.893 180.716 213.893 180.513 213.708 180.513 213.479 180.513 213.247 180.716 213.062 180.969 213.062 181.221 213.062 181.424 213.247 181.424 213.479Z" fill="#374548"/><path d="M181.85 204.905C181.85 205.346 181.451 205.704 180.96 205.704 180.467 205.704 180.068 205.346 180.068 204.905 180.068 204.465 180.467 204.106 180.96 204.106 181.451 204.106 181.85 204.465 181.85 204.905Z" fill="#6F8A91"/><path d="M181.424 204.905C181.424 205.134 181.221 205.319 180.969 205.319 180.716 205.319 180.513 205.134 180.513 204.905 180.513 204.676 180.716 204.491 180.969 204.491 181.221 204.491 181.424 204.676 181.424 204.905Z" fill="#374548"/><path d="M182.411 196.511C182.411 196.951 182.012 197.309 181.521 197.309 181.028 197.309 180.628 196.951 180.628 196.511 180.628 196.067 181.028 195.709 181.521 195.709 182.012 195.709 182.411 196.067 182.411 196.511Z" fill="#6F8A91"/><path d="M181.984 196.511C181.984 196.739 181.782 196.924 181.53 196.924 181.28 196.924 181.075 196.739 181.075 196.511 181.075 196.278 181.28 196.093 181.53 196.093 181.782 196.093 181.984 196.278 181.984 196.511Z" fill="#374548"/><path d="M184.771 188.624C184.771 189.067 184.375 189.425 183.882 189.425 183.389 189.425 182.992 189.067 182.992 188.624 182.992 188.184 183.389 187.825 183.882 187.825 184.375 187.825 184.771 188.184 184.771 188.624Z" fill="#6F8A91"/><path d="M184.348 188.624C184.348 188.853 184.143 189.04 183.891 189.04 183.641 189.04 183.435 188.853 183.435 188.624 183.435 188.395 183.641 188.21 183.891 188.21 184.143 188.21 184.348 188.395 184.348 188.624Z" fill="#374548"/><path d="M189.04 181.456C189.04 181.897 188.641 182.255 188.151 182.255 187.657 182.255 187.258 181.897 187.258 181.456 187.258 181.013 187.657 180.655 188.151 180.655 188.641 180.655 189.04 181.013 189.04 181.456Z" fill="#6F8A91"/><path d="M188.615 181.456C188.615 181.685 188.412 181.87 188.159 181.87 187.907 181.87 187.705 181.685 187.705 181.456 187.705 181.228 187.907 181.04 188.159 181.04 188.412 181.04 188.615 181.228 188.615 181.456Z" fill="#374548"/><path d="M194.669 175.598C194.669 176.039 194.27 176.397 193.777 176.397 193.287 176.397 192.887 176.039 192.887 175.598 192.887 175.158 193.287 174.8 193.777 174.8 194.27 174.8 194.669 175.158 194.669 175.598Z" fill="#6F8A91"/><path d="M194.244 175.598C194.244 175.827 194.041 176.012 193.789 176.012 193.536 176.012 193.333 175.827 193.333 175.598 193.333 175.37 193.536 175.185 193.789 175.185 194.041 175.185 194.244 175.37 194.244 175.598Z" fill="#374548"/><path d="M202.077 171.094C202.077 171.538 201.678 171.896 201.184 171.896 200.694 171.896 200.295 171.538 200.295 171.094 200.295 170.654 200.694 170.296 201.184 170.296 201.678 170.296 202.077 170.654 202.077 171.094Z" fill="#6F8A91"/><path d="M201.652 171.094C201.652 171.323 201.446 171.511 201.197 171.511 200.944 171.511 200.742 171.323 200.742 171.094 200.742 170.865 200.944 170.68 201.197 170.68 201.446 170.68 201.652 170.865 201.652 171.094Z" fill="#374548"/><path d="M210.017 168.59C210.017 169.033 209.618 169.392 209.124 169.392 208.634 169.392 208.234 169.033 208.234 168.59 208.234 168.149 208.634 167.791 209.124 167.791 209.618 167.791 210.017 168.149 210.017 168.59Z" fill="#6F8A91"/><path d="M209.591 168.59C209.591 168.819 209.386 169.007 209.136 169.007 208.884 169.007 208.681 168.819 208.681 168.59 208.681 168.36 208.884 168.175 209.136 168.175 209.386 168.175 209.591 168.36 209.591 168.59Z" fill="#374548"/><path d="M218.456 168.046C218.456 168.487 218.057 168.845 217.563 168.845 217.073 168.845 216.674 168.487 216.674 168.046 216.674 167.603 217.073 167.248 217.563 167.248 218.057 167.248 218.456 167.603 218.456 168.046Z" fill="#6F8A91"/><path d="M218.03 168.046C218.03 168.275 217.827 168.46 217.575 168.46 217.322 168.46 217.12 168.275 217.12 168.046 217.12 167.818 217.322 167.633 217.575 167.633 217.827 167.633 218.03 167.818 218.03 168.046Z" fill="#374548"/><path d="M187.725 199.05C186.885 206.258 187.085 220.394 187.085 220.394 187.085 220.394 186.545 236.282 187.555 243.957 189.775 260.831 201.76 266.748 210.883 269.077L221.797 269.044 232.699 268.994C244.908 266.138 255.987 257.264 256.28 244.809L256.363 219.539 256.28 197.855C256.236 186.75 247.754 174.007 233.058 173.781L222.046 173.611 212.997 173.526C199.725 173.4 189.546 183.458 187.725 199.05Z" fill="#6F8A91"/><path d="M225.925 166.825 224.771 167.858" fill="#6F8A91"/><path d="M226.818 167.929C226.818 168.369 226.419 168.728 225.925 168.728 225.435 168.728 225.036 168.369 225.036 167.929 225.036 167.488 225.435 167.131 225.925 167.131 226.419 167.131 226.818 167.488 226.818 167.929Z" fill="#6F8A91"/><path d="M226.393 167.929C226.393 168.158 226.187 168.343 225.937 168.343 225.685 168.343 225.482 168.158 225.482 167.929 225.482 167.7 225.685 167.515 225.937 167.515 226.187 167.515 226.393 167.7 226.393 167.929Z" fill="#374548"/><path d="M235.327 168.554C235.327 168.995 234.931 169.353 234.438 169.353 233.947 169.353 233.548 168.995 233.548 168.554 233.548 168.111 233.947 167.756 234.438 167.756 234.931 167.756 235.327 168.111 235.327 168.554Z" fill="#6F8A91"/><path d="M234.905 168.554C234.905 168.784 234.699 168.968 234.449 168.968 234.197 168.968 233.991 168.784 233.991 168.554 233.991 168.326 234.197 168.141 234.449 168.141 234.699 168.141 234.905 168.326 234.905 168.554Z" fill="#374548"/><path d="M243.511 171.062C243.511 171.502 243.111 171.861 242.618 171.861 242.128 171.861 241.728 171.502 241.728 171.062 241.728 170.621 242.128 170.264 242.618 170.264 243.111 170.264 243.511 170.621 243.511 171.062Z" fill="#6F8A91"/><path d="M243.085 171.062C243.085 171.291 242.879 171.476 242.63 171.476 242.377 171.476 242.172 171.291 242.172 171.062 242.172 170.833 242.377 170.648 242.63 170.648 242.879 170.648 243.085 170.833 243.085 171.062Z" fill="#374548"/><path d="M250.748 175.302C250.748 175.746 250.352 176.103 249.859 176.103 249.368 176.103 248.969 175.746 248.969 175.302 248.969 174.862 249.368 174.503 249.859 174.503 250.352 174.503 250.748 174.862 250.748 175.302Z" fill="#6F8A91"/><path d="M250.325 175.302C250.325 175.534 250.12 175.719 249.871 175.719 249.618 175.719 249.413 175.534 249.413 175.302 249.413 175.073 249.618 174.888 249.871 174.888 250.12 174.888 250.325 175.073 250.325 175.302Z" fill="#374548"/><path d="M256.803 181.171C256.803 181.612 256.403 181.97 255.913 181.97 255.42 181.97 255.021 181.612 255.021 181.171 255.021 180.728 255.42 180.37 255.913 180.37 256.403 180.37 256.803 180.728 256.803 181.171Z" fill="#6F8A91"/><path d="M256.377 181.169C256.377 181.4 256.175 181.585 255.922 181.585 255.67 181.585 255.467 181.4 255.467 181.169 255.467 180.94 255.67 180.755 255.922 180.755 256.175 180.755 256.377 180.94 256.377 181.169Z" fill="#374548"/><path d="M261.272 188.359C261.272 188.803 260.873 189.158 260.382 189.158 259.889 189.158 259.493 188.803 259.493 188.359 259.493 187.919 259.889 187.56 260.382 187.56 260.873 187.56 261.272 187.919 261.272 188.359Z" fill="#6F8A91"/><path d="M260.846 188.359C260.846 188.589 260.644 188.774 260.391 188.774 260.141 188.774 259.936 188.589 259.936 188.359 259.936 188.13 260.141 187.945 260.391 187.945 260.644 187.945 260.846 188.13 260.846 188.359Z" fill="#374548"/><path d="M263.891 196.443C263.891 196.886 263.492 197.244 263.002 197.244 262.508 197.244 262.109 196.886 262.109 196.443 262.109 196.002 262.508 195.644 263.002 195.644 263.492 195.644 263.891 196.002 263.891 196.443Z" fill="#6F8A91"/><path d="M263.465 196.443C263.465 196.672 263.262 196.86 263.01 196.86 262.76 196.86 262.555 196.672 262.555 196.443 262.555 196.214 262.76 196.029 263.01 196.029 263.262 196.029 263.465 196.214 263.465 196.443Z" fill="#374548"/><path d="M264.537 204.773C264.537 205.213 264.137 205.571 263.647 205.571 263.154 205.571 262.757 205.213 262.757 204.773 262.757 204.333 263.154 203.974 263.647 203.974 264.137 203.974 264.537 204.333 264.537 204.773Z" fill="#6F8A91"/><path d="M264.111 204.773C264.111 205.002 263.909 205.187 263.656 205.187 263.407 205.187 263.201 205.002 263.201 204.773 263.201 204.544 263.407 204.359 263.656 204.359 263.909 204.359 264.111 204.544 264.111 204.773Z" fill="#374548"/><path d="M264.546 213.188C264.546 213.632 264.146 213.99 263.656 213.99 263.163 213.99 262.763 213.632 262.763 213.188 262.763 212.748 263.163 212.39 263.656 212.39 264.146 212.39 264.546 212.748 264.546 213.188Z" fill="#6F8A91"/><path d="M264.12 213.188C264.12 213.417 263.917 213.605 263.665 213.605 263.413 213.605 263.21 213.417 263.21 213.188 263.21 212.959 263.413 212.774 263.665 212.774 263.917 212.774 264.12 212.959 264.12 213.188Z" fill="#374548"/><path d="M264.584 221.818C264.584 222.258 264.185 222.616 263.695 222.616 263.201 222.616 262.802 222.258 262.802 221.818 262.802 221.378 263.201 221.019 263.695 221.019 264.185 221.019 264.584 221.378 264.584 221.818Z" fill="#6F8A91"/><path d="M264.158 221.818C264.158 222.047 263.955 222.231 263.703 222.231 263.45 222.231 263.248 222.047 263.248 221.818 263.248 221.589 263.45 221.404 263.703 221.404 263.955 221.404 264.158 221.589 264.158 221.818Z" fill="#374548"/><path d="M264.484 230.336C264.484 230.779 264.085 231.137 263.592 231.137 263.102 231.137 262.702 230.779 262.702 230.336 262.702 229.896 263.102 229.537 263.592 229.537 264.085 229.537 264.484 229.896 264.484 230.336Z" fill="#6F8A91"/><path d="M264.058 230.336C264.058 230.564 263.853 230.752 263.604 230.752 263.351 230.752 263.148 230.564 263.148 230.336 263.148 230.107 263.351 229.922 263.604 229.922 263.853 229.922 264.058 230.107 264.058 230.336Z" fill="#374548"/><path d="M264.361 238.898C264.361 239.338 263.964 239.697 263.471 239.697 262.98 239.697 262.581 239.338 262.581 238.898 262.581 238.454 262.98 238.096 263.471 238.096 263.964 238.096 264.361 238.454 264.361 238.898Z" fill="#6F8A91"/><path d="M263.938 238.898C263.938 239.127 263.732 239.312 263.483 239.312 263.23 239.312 263.025 239.127 263.025 238.898 263.025 238.669 263.23 238.481 263.483 238.481 263.732 238.481 263.938 238.669 263.938 238.898Z" fill="#374548"/><path d="M263.973 247.075C263.973 247.516 263.574 247.874 263.083 247.874 262.59 247.874 262.191 247.516 262.191 247.075 262.191 246.632 262.59 246.274 263.083 246.274 263.574 246.274 263.973 246.632 263.973 247.075Z" fill="#6F8A91"/><path d="M263.547 247.075C263.547 247.304 263.345 247.489 263.092 247.489 262.84 247.489 262.637 247.304 262.637 247.075 262.637 246.847 262.84 246.659 263.092 246.659 263.345 246.659 263.547 246.847 263.547 247.075Z" fill="#374548"/><path d="M261.181 254.889C261.181 255.332 260.782 255.69 260.291 255.69 259.798 255.69 259.399 255.332 259.399 254.889 259.399 254.448 259.798 254.09 260.291 254.09 260.782 254.09 261.181 254.448 261.181 254.889Z" fill="#6F8A91"/><path d="M260.755 254.889C260.755 255.117 260.553 255.305 260.3 255.305 260.047 255.305 259.845 255.117 259.845 254.889 259.845 254.659 260.047 254.475 260.3 254.475 260.553 254.475 260.755 254.659 260.755 254.889Z" fill="#374548"/><path d="M256.697 262.003C256.697 262.446 256.298 262.805 255.807 262.805 255.314 262.805 254.915 262.446 254.915 262.003 254.915 261.563 255.314 261.204 255.807 261.204 256.298 261.204 256.697 261.563 256.697 262.003Z" fill="#6F8A91"/><path d="M256.272 262.003C256.272 262.232 256.069 262.42 255.816 262.42 255.564 262.42 255.362 262.232 255.362 262.003 255.362 261.774 255.564 261.589 255.816 261.589 256.069 261.589 256.272 261.774 256.272 262.003Z" fill="#374548"/><path d="M250.704 267.579C250.704 268.019 250.305 268.378 249.815 268.378 249.322 268.378 248.922 268.019 248.922 267.579 248.922 267.136 249.322 266.777 249.815 266.777 250.305 266.777 250.704 267.136 250.704 267.579Z" fill="#6F8A91"/><path d="M250.279 267.579C250.279 267.808 250.076 267.993 249.823 267.993 249.571 267.993 249.368 267.808 249.368 267.579 249.368 267.35 249.571 267.162 249.823 267.162 250.076 267.162 250.279 267.35 250.279 267.579Z" fill="#374548"/><path d="M243.208 272.071C243.208 272.515 242.809 272.87 242.315 272.87 241.825 272.87 241.426 272.515 241.426 272.071 241.426 271.631 241.825 271.273 242.315 271.273 242.809 271.273 243.208 271.631 243.208 272.071Z" fill="#6F8A91"/><path d="M242.782 272.071C242.782 272.301 242.577 272.488 242.327 272.488 242.075 272.488 241.872 272.301 241.872 272.071 241.872 271.842 242.075 271.657 242.327 271.657 242.577 271.657 242.782 271.842 242.782 272.071Z" fill="#374548"/><path d="M235.207 274.435C235.207 274.876 234.808 275.234 234.318 275.234 233.824 275.234 233.425 274.876 233.425 274.435 233.425 273.992 233.824 273.636 234.318 273.636 234.808 273.636 235.207 273.992 235.207 274.435Z" fill="#6F8A91"/><path d="M234.781 274.435C234.781 274.664 234.578 274.849 234.326 274.849 234.076 274.849 233.871 274.664 233.871 274.435 233.871 274.206 234.076 274.021 234.326 274.021 234.578 274.021 234.781 274.206 234.781 274.435Z" fill="#374548"/><path d="M226.744 275.213C226.744 275.654 226.345 276.012 225.852 276.012 225.361 276.012 224.962 275.654 224.962 275.213 224.962 274.773 225.361 274.414 225.852 274.414 226.345 274.414 226.744 274.773 226.744 275.213Z" fill="#6F8A91"/><path d="M226.319 275.213C226.319 275.443 226.113 275.627 225.864 275.627 225.612 275.627 225.409 275.443 225.409 275.213 225.409 274.984 225.612 274.799 225.864 274.799 226.113 274.799 226.319 274.984 226.319 275.213Z" fill="#374548"/><path d="M218.326 275.04C218.326 275.48 217.927 275.839 217.437 275.839 216.943 275.839 216.544 275.48 216.544 275.04 216.544 274.599 216.943 274.241 217.437 274.241 217.927 274.241 218.326 274.599 218.326 275.04Z" fill="#6F8A91"/><path d="M217.901 275.04C217.901 275.269 217.698 275.454 217.445 275.454 217.193 275.454 216.991 275.269 216.991 275.04 216.991 274.811 217.193 274.626 217.445 274.626 217.698 274.626 217.901 274.811 217.901 275.04Z" fill="#374548"/><path d="M209.976 274.582C209.976 275.022 209.576 275.38 209.083 275.38 208.593 275.38 208.194 275.022 208.194 274.582 208.194 274.141 208.593 273.783 209.083 273.783 209.576 273.783 209.976 274.141 209.976 274.582Z" fill="#6F8A91"/><path d="M209.55 274.582C209.55 274.811 209.345 274.996 209.095 274.996 208.843 274.996 208.64 274.811 208.64 274.582 208.64 274.353 208.843 274.168 209.095 274.168 209.345 274.168 209.55 274.353 209.55 274.582Z" fill="#374548"/><path d="M202.048 271.919C202.048 272.362 201.649 272.72 201.155 272.72 200.665 272.72 200.266 272.362 200.266 271.919 200.266 271.478 200.665 271.12 201.155 271.12 201.649 271.12 202.048 271.478 202.048 271.919Z" fill="#6F8A91"/><path d="M201.622 271.919C201.622 272.151 201.42 272.336 201.167 272.336 200.915 272.336 200.712 272.151 200.712 271.919 200.712 271.689 200.915 271.505 201.167 271.505 201.42 271.505 201.622 271.689 201.622 271.919Z" fill="#374548"/><path d="M194.901 267.79C194.901 268.231 194.505 268.589 194.011 268.589 193.518 268.589 193.122 268.231 193.122 267.79 193.122 267.35 193.518 266.991 194.011 266.991 194.505 266.991 194.901 267.35 194.901 267.79Z" fill="#6F8A91"/><path d="M194.479 267.79C194.479 268.019 194.273 268.205 194.02 268.205 193.771 268.205 193.566 268.019 193.566 267.79 193.566 267.561 193.771 267.376 194.02 267.376 194.273 267.376 194.479 267.561 194.479 267.79Z" fill="#374548"/><path d="M188.97 262.091C188.97 262.535 188.574 262.893 188.081 262.893 187.59 262.893 187.191 262.535 187.191 262.091 187.191 261.651 187.59 261.292 188.081 261.292 188.574 261.292 188.97 261.651 188.97 262.091Z" fill="#6F8A91"/><path d="M188.547 262.091C188.547 262.32 188.341 262.508 188.092 262.508 187.84 262.508 187.634 262.32 187.634 262.091 187.634 261.862 187.84 261.677 188.092 261.677 188.341 261.677 188.547 261.862 188.547 262.091Z" fill="#374548"/><path d="M288.934 255.129C288.934 255.57 288.534 255.928 288.044 255.928 287.551 255.928 287.155 255.57 287.155 255.129 287.155 254.686 287.551 254.328 288.044 254.328 288.534 254.328 288.934 254.686 288.934 255.129Z" fill="#6F8A91"/><path d="M288.511 255.129C288.511 255.359 288.306 255.543 288.053 255.543 287.804 255.543 287.598 255.359 287.598 255.129 287.598 254.9 287.804 254.712 288.053 254.712 288.306 254.712 288.511 254.9 288.511 255.129Z" fill="#374548"/><path d="M286.564 247.334C286.564 247.774 286.165 248.132 285.672 248.132 285.182 248.132 284.782 247.774 284.782 247.334 284.782 246.893 285.182 246.535 285.672 246.535 286.165 246.535 286.564 246.893 286.564 247.334Z" fill="#6F8A91"/><path d="M286.139 247.334C286.139 247.563 285.936 247.748 285.683 247.748 285.432 247.748 285.229 247.563 285.229 247.334 285.229 247.104 285.432 246.919 285.683 246.919 285.936 246.919 286.139 247.104 286.139 247.334Z" fill="#374548"/><path d="M286.083 239.042C286.083 239.482 285.683 239.84 285.193 239.84 284.7 239.84 284.301 239.482 284.301 239.042 284.301 238.601 284.7 238.243 285.193 238.243 285.683 238.243 286.083 238.601 286.083 239.042Z" fill="#6F8A91"/><path d="M285.657 239.042C285.657 239.27 285.455 239.455 285.202 239.455 284.953 239.455 284.747 239.27 284.747 239.042 284.747 238.813 284.953 238.628 285.202 238.628 285.455 238.628 285.657 238.813 285.657 239.042Z" fill="#374548"/><path d="M285.995 230.521C285.995 230.964 285.595 231.322 285.102 231.322 284.612 231.322 284.212 230.964 284.212 230.521 284.212 230.08 284.612 229.722 285.102 229.722 285.595 229.722 285.995 230.08 285.995 230.521Z" fill="#6F8A91"/><path d="M285.569 230.521C285.569 230.749 285.367 230.937 285.114 230.937 284.862 230.937 284.659 230.749 284.659 230.521 284.659 230.292 284.862 230.107 285.114 230.107 285.367 230.107 285.569 230.292 285.569 230.521Z" fill="#374548"/><path d="M286.036 222.162C286.036 222.602 285.637 222.96 285.144 222.96 284.653 222.96 284.254 222.602 284.254 222.162 284.254 221.721 284.653 221.362 285.144 221.362 285.637 221.362 286.036 221.721 286.036 222.162Z" fill="#6F8A91"/><path d="M285.61 222.162C285.61 222.39 285.404 222.575 285.155 222.575 284.902 222.575 284.7 222.39 284.7 222.162 284.7 221.932 284.902 221.747 285.155 221.747 285.404 221.747 285.61 221.932 285.61 222.162Z" fill="#374548"/><path d="M286.036 213.667C286.036 214.107 285.637 214.465 285.144 214.465 284.653 214.465 284.254 214.107 284.254 213.667 284.254 213.223 284.653 212.866 285.144 212.866 285.637 212.866 286.036 213.223 286.036 213.667Z" fill="#6F8A91"/><path d="M285.61 213.667C285.61 213.896 285.404 214.081 285.155 214.081 284.902 214.081 284.7 213.896 284.7 213.667 284.7 213.438 284.902 213.25 285.155 213.25 285.404 213.25 285.61 213.438 285.61 213.667Z" fill="#374548"/><path d="M286.036 205.093C286.036 205.534 285.637 205.891 285.144 205.891 284.653 205.891 284.254 205.534 284.254 205.093 284.254 204.653 284.653 204.294 285.144 204.294 285.637 204.294 286.036 204.653 286.036 205.093Z" fill="#6F8A91"/><path d="M285.61 205.093C285.61 205.322 285.404 205.507 285.155 205.507 284.902 205.507 284.7 205.322 284.7 205.093 284.7 204.864 284.902 204.679 285.155 204.679 285.404 204.679 285.61 204.864 285.61 205.093Z" fill="#374548"/><path d="M286.597 196.699C286.597 197.139 286.198 197.497 285.704 197.497 285.214 197.497 284.814 197.139 284.814 196.699 284.814 196.255 285.214 195.896 285.704 195.896 286.198 195.896 286.597 196.255 286.597 196.699Z" fill="#6F8A91"/><path d="M286.171 196.699C286.171 196.927 285.966 197.112 285.716 197.112 285.464 197.112 285.261 196.927 285.261 196.699 285.261 196.469 285.464 196.281 285.716 196.281 285.966 196.281 286.171 196.469 286.171 196.699Z" fill="#374548"/><path d="M288.958 188.812C288.958 189.255 288.559 189.613 288.068 189.613 287.575 189.613 287.175 189.255 287.175 188.812 287.175 188.371 287.575 188.013 288.068 188.013 288.559 188.013 288.958 188.371 288.958 188.812Z" fill="#6F8A91"/><path d="M288.532 188.812C288.532 189.04 288.329 189.228 288.077 189.228 287.824 189.228 287.622 189.04 287.622 188.812 287.622 188.583 287.824 188.398 288.077 188.398 288.329 188.398 288.532 188.583 288.532 188.812Z" fill="#374548"/><path d="M293.227 181.644C293.227 182.084 292.827 182.443 292.334 182.443 291.844 182.443 291.445 182.084 291.445 181.644 291.445 181.2 291.844 180.846 292.334 180.846 292.827 180.846 293.227 181.2 293.227 181.644Z" fill="#6F8A91"/><path d="M292.801 181.644C292.801 181.873 292.596 182.058 292.346 182.058 292.094 182.058 291.891 181.873 291.891 181.644 291.891 181.415 292.094 181.231 292.346 181.231 292.596 181.231 292.801 181.415 292.801 181.644Z" fill="#374548"/><path d="M298.853 175.786C298.853 176.227 298.454 176.585 297.963 176.585 297.47 176.585 297.073 176.227 297.073 175.786 297.073 175.346 297.47 174.988 297.963 174.988 298.454 174.988 298.853 175.346 298.853 175.786Z" fill="#6F8A91"/><path d="M298.43 175.786C298.43 176.015 298.224 176.2 297.972 176.2 297.722 176.2 297.517 176.015 297.517 175.786 297.517 175.558 297.722 175.373 297.972 175.373 298.224 175.373 298.43 175.558 298.43 175.786Z" fill="#374548"/><path d="M306.261 171.282C306.261 171.726 305.861 172.084 305.371 172.084 304.878 172.084 304.481 171.726 304.481 171.282 304.481 170.842 304.878 170.484 305.371 170.484 305.861 170.484 306.261 170.842 306.261 171.282Z" fill="#6F8A91"/><path d="M305.835 171.282C305.835 171.511 305.633 171.699 305.38 171.699 305.131 171.699 304.925 171.511 304.925 171.282 304.925 171.053 305.131 170.868 305.38 170.868 305.633 170.868 305.835 171.053 305.835 171.282Z" fill="#374548"/><path d="M314.2 168.778C314.2 169.221 313.801 169.58 313.31 169.58 312.817 169.58 312.418 169.221 312.418 168.778 312.418 168.337 312.817 167.979 313.31 167.979 313.801 167.979 314.2 168.337 314.2 168.778Z" fill="#6F8A91"/><path d="M313.775 168.778C313.775 169.007 313.572 169.195 313.319 169.195 313.067 169.195 312.865 169.007 312.865 168.778 312.865 168.548 313.067 168.363 313.319 168.363 313.572 168.363 313.775 168.548 313.775 168.778Z" fill="#374548"/><path d="M322.639 168.234C322.639 168.675 322.24 169.033 321.75 169.033 321.256 169.033 320.86 168.675 320.86 168.234 320.86 167.794 321.256 167.436 321.75 167.436 322.24 167.436 322.639 167.794 322.639 168.234Z" fill="#6F8A91"/><path d="M322.213 168.234C322.213 168.463 322.011 168.648 321.759 168.648 321.509 168.648 321.303 168.463 321.303 168.234 321.303 168.006 321.509 167.821 321.759 167.821 322.011 167.821 322.213 168.006 322.213 168.234Z" fill="#374548"/><path d="M291.912 199.238C291.069 206.446 291.271 220.581 291.271 220.581 291.271 220.581 290.731 236.47 291.741 244.145 293.961 261.019 305.944 266.936 315.069 269.264L325.981 269.232 336.883 269.182C349.095 266.325 360.173 257.452 360.464 244.997L360.549 219.727 360.464 198.043C360.422 186.938 351.94 174.195 337.244 173.969L326.23 173.799 317.181 173.714C303.911 173.587 293.732 183.646 291.912 199.238Z" fill="#6F8A91"/><path d="M330.112 167.013 328.958 168.046" fill="#6F8A91"/><path d="M331.002 168.117C331.002 168.557 330.602 168.916 330.112 168.916 329.619 168.916 329.222 168.557 329.222 168.117 329.222 167.676 329.619 167.318 330.112 167.318 330.602 167.318 331.002 167.676 331.002 168.117Z" fill="#6F8A91"/><path d="M330.576 168.117C330.576 168.346 330.373 168.531 330.121 168.531 329.871 168.531 329.665 168.346 329.665 168.117 329.665 167.888 329.871 167.703 330.121 167.703 330.373 167.703 330.576 167.888 330.576 168.117Z" fill="#374548"/><path d="M339.514 168.742C339.514 169.183 339.115 169.541 338.624 169.541 338.131 169.541 337.732 169.183 337.732 168.742 337.732 168.302 338.131 167.944 338.624 167.944 339.115 167.944 339.514 168.302 339.514 168.742Z" fill="#6F8A91"/><path d="M339.088 168.742C339.088 168.971 338.885 169.156 338.633 169.156 338.38 169.156 338.177 168.971 338.177 168.742 338.177 168.514 338.38 168.329 338.633 168.329 338.885 168.329 339.088 168.514 339.088 168.742Z" fill="#374548"/><path d="M347.694 171.25C347.694 171.69 347.294 172.049 346.804 172.049 346.311 172.049 345.912 171.69 345.912 171.25 345.912 170.809 346.311 170.451 346.804 170.451 347.294 170.451 347.694 170.809 347.694 171.25Z" fill="#6F8A91"/><path d="M347.268 171.25C347.268 171.479 347.066 171.664 346.813 171.664 346.561 171.664 346.358 171.479 346.358 171.25 346.358 171.021 346.561 170.836 346.813 170.836 347.066 170.836 347.268 171.021 347.268 171.25Z" fill="#374548"/><path d="M354.934 175.493C354.934 175.933 354.535 176.291 354.045 176.291 353.552 176.291 353.152 175.933 353.152 175.493 353.152 175.049 353.552 174.691 354.045 174.691 354.535 174.691 354.934 175.049 354.934 175.493Z" fill="#6F8A91"/><path d="M354.509 175.493C354.509 175.721 354.306 175.907 354.054 175.907 353.802 175.907 353.599 175.721 353.599 175.493 353.599 175.261 353.802 175.076 354.054 175.076 354.306 175.076 354.509 175.261 354.509 175.493Z" fill="#374548"/><path d="M360.989 181.359C360.989 181.8 360.59 182.158 360.097 182.158 359.606 182.158 359.207 181.8 359.207 181.359 359.207 180.916 359.606 180.558 360.097 180.558 360.59 180.558 360.989 180.916 360.989 181.359Z" fill="#6F8A91"/><path d="M360.564 181.359C360.564 181.588 360.358 181.773 360.108 181.773 359.856 181.773 359.654 181.588 359.654 181.359 359.654 181.128 359.856 180.943 360.108 180.943 360.358 180.943 360.564 181.128 360.564 181.359Z" fill="#374548"/><path d="M365.458 188.547C365.458 188.991 365.059 189.349 364.566 189.349 364.076 189.349 363.676 188.991 363.676 188.547 363.676 188.107 364.076 187.748 364.566 187.748 365.059 187.748 365.458 188.107 365.458 188.547Z" fill="#6F8A91"/><path d="M365.033 188.547C365.033 188.777 364.83 188.965 364.578 188.965 364.325 188.965 364.122 188.777 364.122 188.547 364.122 188.318 364.325 188.133 364.578 188.133 364.83 188.133 365.033 188.318 365.033 188.547Z" fill="#374548"/><path d="M368.078 196.631C368.078 197.074 367.678 197.432 367.185 197.432 366.694 197.432 366.295 197.074 366.295 196.631 366.295 196.19 366.694 195.832 367.185 195.832 367.678 195.832 368.078 196.19 368.078 196.631Z" fill="#6F8A91"/><path d="M367.651 196.631C367.651 196.86 367.446 197.048 367.197 197.048 366.944 197.048 366.741 196.86 366.741 196.631 366.741 196.402 366.944 196.217 367.197 196.217 367.446 196.217 367.651 196.402 367.651 196.631Z" fill="#374548"/><path d="M368.723 204.961C368.723 205.401 368.324 205.759 367.831 205.759 367.34 205.759 366.941 205.401 366.941 204.961 366.941 204.52 367.34 204.162 367.831 204.162 368.324 204.162 368.723 204.52 368.723 204.961Z" fill="#6F8A91"/><path d="M368.298 204.961C368.298 205.19 368.095 205.375 367.842 205.375 367.59 205.375 367.387 205.19 367.387 204.961 367.387 204.732 367.59 204.547 367.842 204.547 368.095 204.547 368.298 204.732 368.298 204.961Z" fill="#374548"/><path d="M368.732 213.376C368.732 213.819 368.333 214.178 367.839 214.178 367.349 214.178 366.95 213.819 366.95 213.376 366.95 212.935 367.349 212.578 367.839 212.578 368.333 212.578 368.732 212.935 368.732 213.376Z" fill="#6F8A91"/><path d="M368.306 213.376C368.306 213.605 368.101 213.793 367.851 213.793 367.599 213.793 367.397 213.605 367.397 213.376 367.397 213.147 367.599 212.962 367.851 212.962 368.101 212.962 368.306 213.147 368.306 213.376Z" fill="#374548"/><path d="M368.771 222.006C368.771 222.446 368.371 222.804 367.878 222.804 367.387 222.804 366.988 222.446 366.988 222.006 366.988 221.565 367.387 221.207 367.878 221.207 368.371 221.207 368.771 221.565 368.771 222.006Z" fill="#6F8A91"/><path d="M368.344 222.006C368.344 222.234 368.139 222.419 367.89 222.419 367.637 222.419 367.434 222.234 367.434 222.006 367.434 221.777 367.637 221.592 367.89 221.592 368.139 221.592 368.344 221.777 368.344 222.006Z" fill="#374548"/><path d="M368.668 230.524C368.668 230.967 368.268 231.325 367.778 231.325 367.285 231.325 366.885 230.967 366.885 230.524 366.885 230.083 367.285 229.725 367.778 229.725 368.268 229.725 368.668 230.083 368.668 230.524Z" fill="#6F8A91"/><path d="M368.242 230.524C368.242 230.752 368.039 230.94 367.787 230.94 367.537 230.94 367.332 230.752 367.332 230.524 367.332 230.295 367.537 230.11 367.787 230.11 368.039 230.11 368.242 230.295 368.242 230.524Z" fill="#374548"/><path d="M368.547 239.085C368.547 239.526 368.148 239.885 367.657 239.885 367.164 239.885 366.765 239.526 366.765 239.085 366.765 238.642 367.164 238.284 367.657 238.284 368.148 238.284 368.547 238.642 368.547 239.085Z" fill="#6F8A91"/><path d="M368.121 239.085C368.121 239.315 367.919 239.5 367.666 239.5 367.414 239.5 367.211 239.315 367.211 239.085 367.211 238.857 367.414 238.669 367.666 238.669 367.919 238.669 368.121 238.857 368.121 239.085Z" fill="#374548"/><path d="M368.156 247.263C368.156 247.703 367.76 248.062 367.267 248.062 366.776 248.062 366.377 247.703 366.377 247.263 366.377 246.819 366.776 246.462 367.267 246.462 367.76 246.462 368.156 246.819 368.156 247.263Z" fill="#6F8A91"/><path d="M367.734 247.263C367.734 247.492 367.528 247.677 367.276 247.677 367.026 247.677 366.821 247.492 366.821 247.263 366.821 247.034 367.026 246.847 367.276 246.847 367.528 246.847 367.734 247.034 367.734 247.263Z" fill="#374548"/><path d="M365.364 255.077C365.364 255.52 364.968 255.878 364.475 255.878 363.984 255.878 363.585 255.52 363.585 255.077 363.585 254.636 363.984 254.278 364.475 254.278 364.968 254.278 365.364 254.636 365.364 255.077Z" fill="#6F8A91"/><path d="M364.942 255.077C364.942 255.305 364.736 255.493 364.484 255.493 364.233 255.493 364.028 255.305 364.028 255.077 364.028 254.847 364.233 254.662 364.484 254.662 364.736 254.662 364.942 254.847 364.942 255.077Z" fill="#374548"/><path d="M360.881 262.191C360.881 262.634 360.484 262.993 359.991 262.993 359.501 262.993 359.101 262.634 359.101 262.191 359.101 261.751 359.501 261.392 359.991 261.392 360.484 261.392 360.881 261.751 360.881 262.191Z" fill="#6F8A91"/><path d="M360.458 262.191C360.458 262.42 360.253 262.608 360.003 262.608 359.75 262.608 359.545 262.42 359.545 262.191 359.545 261.962 359.75 261.777 360.003 261.777 360.253 261.777 360.458 261.962 360.458 262.191Z" fill="#374548"/><path d="M354.888 267.767C354.888 268.207 354.492 268.565 353.998 268.565 353.508 268.565 353.109 268.207 353.109 267.767 353.109 267.324 353.508 266.965 353.998 266.965 354.492 266.965 354.888 267.324 354.888 267.767Z" fill="#6F8A91"/><path d="M354.465 267.767C354.465 267.996 354.259 268.181 354.01 268.181 353.757 268.181 353.552 267.996 353.552 267.767 353.552 267.538 353.757 267.35 354.01 267.35 354.259 267.35 354.465 267.538 354.465 267.767Z" fill="#374548"/><path d="M347.391 272.259C347.391 272.703 346.992 273.061 346.502 273.061 346.008 273.061 345.609 272.703 345.609 272.259 345.609 271.819 346.008 271.461 346.502 271.461 346.992 271.461 347.391 271.819 347.391 272.259Z" fill="#6F8A91"/><path d="M346.966 272.259C346.966 272.488 346.763 272.676 346.51 272.676 346.261 272.676 346.056 272.488 346.056 272.259 346.056 272.03 346.261 271.845 346.51 271.845 346.763 271.845 346.966 272.03 346.966 272.259Z" fill="#374548"/><path d="M339.394 274.623C339.394 275.064 338.994 275.421 338.501 275.421 338.01 275.421 337.611 275.064 337.611 274.623 337.611 274.18 338.01 273.824 338.501 273.824 338.994 273.824 339.394 274.18 339.394 274.623Z" fill="#6F8A91"/><path d="M338.967 274.623C338.967 274.852 338.762 275.037 338.513 275.037 338.26 275.037 338.057 274.852 338.057 274.623 338.057 274.394 338.26 274.209 338.513 274.209 338.762 274.209 338.967 274.394 338.967 274.623Z" fill="#374548"/><path d="M330.928 275.401C330.928 275.842 330.529 276.199 330.038 276.199 329.545 276.199 329.149 275.842 329.149 275.401 329.149 274.961 329.545 274.602 330.038 274.602 330.529 274.602 330.928 274.961 330.928 275.401Z" fill="#6F8A91"/><path d="M330.503 275.401C330.503 275.63 330.3 275.815 330.047 275.815 329.798 275.815 329.592 275.63 329.592 275.401 329.592 275.172 329.798 274.987 330.047 274.987 330.3 274.987 330.503 275.172 330.503 275.401Z" fill="#374548"/><path d="M322.513 275.228C322.513 275.668 322.113 276.027 321.62 276.027 321.13 276.027 320.731 275.668 320.731 275.228 320.731 274.787 321.13 274.429 321.62 274.429 322.113 274.429 322.513 274.787 322.513 275.228Z" fill="#6F8A91"/><path d="M322.087 275.228C322.087 275.457 321.882 275.642 321.632 275.642 321.38 275.642 321.174 275.457 321.174 275.228 321.174 274.999 321.38 274.814 321.632 274.814 321.882 274.814 322.087 274.999 322.087 275.228Z" fill="#374548"/><path d="M314.159 274.77C314.159 275.21 313.76 275.568 313.27 275.568 312.776 275.568 312.377 275.21 312.377 274.77 312.377 274.329 312.776 273.971 313.27 273.971 313.76 273.971 314.159 274.329 314.159 274.77Z" fill="#6F8A91"/><path d="M313.734 274.77C313.734 274.999 313.531 275.184 313.278 275.184 313.029 275.184 312.823 274.999 312.823 274.77 312.823 274.541 313.029 274.356 313.278 274.356 313.531 274.356 313.734 274.541 313.734 274.77Z" fill="#374548"/><path d="M306.231 272.107C306.231 272.55 305.835 272.908 305.342 272.908 304.849 272.908 304.452 272.55 304.452 272.107 304.452 271.666 304.849 271.308 305.342 271.308 305.835 271.308 306.231 271.666 306.231 272.107Z" fill="#6F8A91"/><path d="M305.809 272.107C305.809 272.339 305.603 272.524 305.351 272.524 305.101 272.524 304.895 272.339 304.895 272.107 304.895 271.877 305.101 271.692 305.351 271.692 305.603 271.692 305.809 271.877 305.809 272.107Z" fill="#374548"/><path d="M299.088 267.978C299.088 268.419 298.688 268.777 298.198 268.777 297.705 268.777 297.305 268.419 297.305 267.978 297.305 267.538 297.705 267.179 298.198 267.179 298.688 267.179 299.088 267.538 299.088 267.978Z" fill="#6F8A91"/><path d="M298.662 267.978C298.662 268.207 298.46 268.393 298.207 268.393 297.954 268.393 297.752 268.207 297.752 267.978 297.752 267.749 297.954 267.564 298.207 267.564 298.46 267.564 298.662 267.749 298.662 267.978Z" fill="#374548"/><path d="M293.157 262.279C293.157 262.723 292.757 263.08 292.267 263.08 291.773 263.08 291.374 262.723 291.374 262.279 291.374 261.839 291.773 261.48 292.267 261.48 292.757 261.48 293.157 261.839 293.157 262.279Z" fill="#6F8A91"/><path d="M292.731 262.279C292.731 262.508 292.528 262.696 292.276 262.696 292.023 262.696 291.821 262.508 291.821 262.279 291.821 262.05 292.023 261.865 292.276 261.865 292.528 261.865 292.731 262.05 292.731 262.279Z" fill="#374548"/><path d="M43.6205 328.858 403.027 328.858 403.027 330.534 43.6205 330.534Z" fill="#536C5D"/><path d="M38.5467 122.902 410.095 122.902 410.095 124.578 38.5467 124.578Z" fill="#536C5D"/><path d="M275.407 122.981 277.081 122.981 277.081 330.414 275.407 330.414Z" fill="#536C5D"/><path d="M167.594 123.46 169.688 123.46 169.688 330.217 167.594 330.217Z" fill="#536C5D"/><path d="M236.696 376.381C239.194 376.29 241.74 375.506 243.874 374.202 246.97 372.312 249.271 369.29 251.439 366.383 254.251 362.607 255.896 358.082 258.362 354.075 260.656 349.77 263.9 341.883 269.537 341.231 272.794 340.853 275.187 343.847 277.462 347.025 282.125 353.537 288.546 366.718 292.463 370.741 294.143 372.467 296.046 374.085 298.23 375.101 299.822 375.838 301.619 376.064 303.36 376.255 319.301 377.999 333.55 376.634 351.467 376.093L349.289 377.697C349.617 377.6 318.114 379.244 300.923 377.409 298.451 377.141 295.972 375.999 294.128 374.331 284.178 365.32 279.171 345.272 270.771 342.206 267.142 340.885 263.759 347.321 261.551 351.69 260.003 354.756 254.601 366.072 250.285 370.996 248.564 372.96 246.559 374.76 244.259 375.996 242.451 376.971 238.36 377.791 238.36 377.791 235.703 378.601 133.276 378.128 112.854 378.433 91.9337 378.745 113.424 376.511 114.489 376.531 114.489 376.531 196.86 377.823 236.696 376.381Z" fill="#373E48"/><path d="M420.266 223.999C420.266 332.393 332.393 420.266 223.999 420.266 115.605 420.266 27.7331 332.393 27.7331 223.999 27.7331 115.605 115.605 27.7331 223.999 27.7331 332.393 27.7331 420.266 115.605 420.266 223.999Z" stroke="#000000" stroke-width="31.266" fill="none"/><path d="M436.054 223.999C436.054 341.114 341.114 436.054 223.999 436.054 106.885 436.054 11.9449 341.114 11.9449 223.999 11.9449 106.885 106.885 11.9449 223.999 11.9449 341.114 11.9449 436.054 106.885 436.054 223.999Z" stroke="#C50E1F" stroke-width="5.97332" fill="none"/><path d="M403.635 223.999C403.635 323.209 323.209 403.635 223.999 403.635 124.79 403.635 44.3639 323.209 44.3639 223.999 44.3639 124.79 124.79 44.3639 223.999 44.3639 323.209 44.3639 403.635 124.79 403.635 223.999Z" stroke="#C50E1F" stroke-width="5.97332" fill="none"/><path d="M157.033 132.31 161.352 129.72 165.592 115.509 173.678 113.151 177.604 119.749 171.714 129.72 173.523 139.77 152.085 137.572 145.725 136.08 138.032 136.394 135.754 126.109 146.039 114.173 155.147 113.938C155.147 113.938 158.759 117.942 159.152 117.155 159.546 116.371 149.416 121.475 149.416 121.475L147.531 131.605 153.107 131.916 157.661 132.075" fill="#0000AA"/><path d="M123.269 144.639 145.96 134.115 151.381 133.646 181.688 141.183 186.243 147.698 192.13 181.776 180.822 182.09 174.935 159.479 178.153 157.121 173.209 159.006 162.057 157.829 157.426 166.543 155.697 174.318 135.284 181.697 113.612 174.395 108.981 189.079 106.703 202.82C106.703 202.82 95.5538 205.725 94.8464 206.038 94.1384 206.352 98.3786 190.491 98.3786 190.491L97.2804 166.857 109.53 156.492Z" fill="#5599FF"/><path d="M126.331 129.485 124.684 137.727 129.943 147.622 133.241 153.509 141.095 154.058 146.747 140.085 144.548 128.933Z" fill="#D5B7AA"/><path d="M181.923 184.839 176.427 192.376 175.484 203.055 188.204 189.234 188.518 181.542 182.707 179.812Z" fill="#AC9D93"/><path d="M104.503 204.312 114.712 208.707C114.712 208.707 118.166 216.559 118.953 216.873 119.737 217.188 107.801 216.089 107.801 216.089L98.6928 209.336 100.737 203.998Z" fill="#AC9D93"/><path d="M176.397 115.45 180.672 111.507 179.063 101.403 171.958 104.788 171.399 113.894 176.009 115.394 176.841 115.394Z" fill="#374845"/><path d="M156.521 115.949 164.682 111.562 153.856 111.286 154.302 115.171 157.021 115.949Z" fill="#374845"/><path d="M335.474 111.265 346.798 120.703 350.243 137.915 340.359 164.788 329.366 171.67 315.487 179.333 306.713 192.103 299.939 198.542 287.504 186.107 300.606 175.114 310.046 166.341 321.925 157.124 327.813 158.568Z" fill="#0044AA"/><path d="M336.14 111.043 312.489 112.487 294.945 121.704 282.396 125.588 287.504 134.917C287.504 134.917 294.387 131.141 295.388 131.252 296.386 131.364 305.492 129.142 305.492 129.142 305.492 129.142 305.715 141.136 306.27 143.133 306.825 145.132 306.27 157.347 306.27 157.347L294.055 151.906 285.173 147.798 271.29 153.906 272.624 165.786 282.618 158.014 294.167 164.896 300.94 174.891 326.48 165.342 337.25 112.152Z" fill="#0044AA"/><path d="M324.48 90.8325C323.482 90.9437 317.151 100.272 317.151 100.272L321.259 112.819 335.697 112.376 340.471 95.6064Z" fill="#D5B7AA"/><path d="M283.505 127.92 274.18 127.92 274.511 136.25 277.955 140.913 284.283 138.247 285.948 132.694Z" fill="#AC9D93"/><path d="M291.533 190.62 283.916 186.694 277.242 186.694C277.242 186.694 278.499 194.39 278.657 195.019 278.813 195.647 287.137 203.654 287.137 203.654L292.79 203.813 297.579 195.412Z" fill="#374845"/><path d="M271.12 163.061C271.434 161.413 268.057 145.317 268.057 145.317L260.99 152.226Z" fill="#374845"/><path d="M377.479 113.559 367.041 122.887 363.377 138.1 367.708 140.208 387.251 120.222 384.92 114.669 378.366 113.894Z" fill="#D5B7AA"/><path d="M312.409 221.269 310.856 225.376 313.519 229.264 304.191 222.933 310.41 219.049Z" fill="#374845"/><path d="M318.629 231.93 319.627 238.146 327.51 243.587 327.399 236.924 322.959 235.926 320.96 234.481 321.846 232.705Z" fill="#374845"/><path d="M369.818 145.206 372.816 153.644 372.038 167.192 364.709 194.065 359.712 189.957 359.269 168.745 346.276 185.071C346.276 185.071 347.832 190.511 347.609 191.51 347.385 192.508 346.387 200.615 346.387 200.615L350.052 207.721 342.835 213.385 338.06 217.381 328.065 223.045 323.179 234.593 316.852 229.819 326.512 216.717 335.506 203.948 339.836 200.95 335.062 202.615 331.841 187.067 333.618 180.74 331.953 180.405 328.621 189.733 325.734 194.619 322.959 201.058 321.958 203.282 313.631 222.379 307.635 216.826 313.854 195.73 317.739 180.96 320.96 176.186 328.732 170.745 334.95 154.757 336.061 141.541 336.951 135.102 345.054 134.1 361.823 138.432Z" fill="#2A2AFF"/><path d="M364.155 193.398C364.155 194.176 365.042 205.389 365.042 205.389L357.38 201.837Z" fill="#917C6F"/><path d="M258.485 291.541C254.128 295.482 242.58 296.419 242.762 302.626 243.15 315.633 253.176 304.963 253.013 313.919 252.434 345.777 310.395 310.527 308.419 299.413 304.232 275.871 287.654 297.628 274.074 301.046 269.059 301.595 262.381 288.018 258.485 291.541Z" fill="#66FF00"/><path d="M179.204 250.593C172.357 256.212 160.019 256.383 156.586 264.552 151.574 276.49 155.406 293.922 165.16 302.435 176.952 312.729 204.949 320.522 211.943 306.519 217.513 295.362 185.91 291.101 186.959 278.678 188.177 264.24 221.345 266.138 221.005 251.653 220.758 241.126 205.845 232.159 195.368 233.201 187.493 233.982 185.32 245.569 179.204 250.593Z" fill="#66FF00"/><path d="M229.246 269.1C230.016 270.118 240.336 277.248 246.544 276.632 255.901 275.703 264.02 267.863 270.181 260.347 276.25 252.942 284.888 242.959 281.905 233.677 278.182 222.1 261.774 211.976 251.157 216.78 244.033 220 251.735 237.321 250.293 245.381 247.334 261.909 226.151 265.004 229.246 269.1Z" fill="#66FF00"/><path d="M262.141 298.503C258.773 298.691 250.872 299.965 251.389 304.379 251.908 308.792 257.992 304.746 258.841 311.875 261.563 334.71 301.613 308.812 300.394 301.325 297.887 285.957 286.204 302.241 276.253 304.458 268.304 308.016 267.197 298.221 262.141 298.503Z" fill="#3F9C00"/><path d="M240.307 265.952C240.73 266.871 246.344 270.509 250.833 269.22 260.388 266.478 280.58 246.259 277.189 235.956 274.138 226.686 262.185 218.403 254.272 222.288 248.963 224.895 257.041 242.765 254.472 250.857 251.905 258.949 238.854 262.787 240.307 265.952Z" fill="#3F9C00"/><path d="M182.839 254.413C176.932 259.437 165.372 258.609 162.412 265.908 158.086 276.575 160.081 291.767 168.499 299.375 178.676 308.575 202.668 316.388 206.47 303.025 208.728 295.097 181.929 293.779 180.898 280.304 179.65 263.961 214.304 264.302 215.69 253.993 216.943 244.667 204.92 240.986 195.879 241.916 189.082 242.615 188.119 249.923 182.839 254.413Z" fill="#3F9C00"/><text fill="#F2F2F2" font-family="Arial Rounded MT Bold,Arial Rounded MT Bold_MSFontService,sans-serif" font-weight="700" font-size="32.039" transform="matrix(0.724006 -0.20207 0.20207 0.724006 164.948 48)">W</text><text fill="#F2F2F2" font-family="Arial Rounded MT Bold,Arial Rounded MT Bold_MSFontService,sans-serif" font-weight="700" font-size="32.039" transform="matrix(0.742333 -0.118143 0.118143 0.742333 187.036 42)">O</text><text fill="#F2F2F2" font-family="Arial Rounded MT Bold,Arial Rounded MT Bold_MSFontService,sans-serif" font-weight="700" font-size="32.039" transform="matrix(0.750406 -0.0436639 0.0436639 0.750406 205.894 39)">B</text><text fill="#F2F2F2" font-family="Arial Rounded MT Bold,Arial Rounded MT Bold_MSFontService,sans-serif" font-weight="700" font-size="32.039" transform="matrix(0.751177 0.027396 -0.027396 0.751177 223.2 38)">B</text><text fill="#F2F2F2" font-family="Arial Rounded MT Bold,Arial Rounded MT Bold_MSFontService,sans-serif" font-weight="700" font-size="32.039" transform="matrix(0.745955 0.0925658 -0.0925658 0.745955 240.515 38)">L</text><text fill="#F2F2F2" font-family="Arial Rounded MT Bold,Arial Rounded MT Bold_MSFontService,sans-serif" font-weight="700" font-size="32.039" transform="matrix(0.735629 0.154487 -0.154487 0.735629 254.965 40)">E</text><text fill="#F2F2F2" font-family="Arial Rounded MT Bold,Arial Rounded MT Bold_MSFontService,sans-serif" font-weight="700" font-size="32.039" transform="matrix(0.720323 0.214828 -0.214828 0.720323 270.685 44)">3</text><text fill="#F9F9F9" font-family="Arial Rounded MT Bold,Arial Rounded MT Bold_MSFontService,sans-serif" font-weight="700" font-size="32.039" transform="matrix(0.621296 0.423093 -0.423093 0.621296 101.872 389)">B</text><text fill="#F9F9F9" font-family="Arial Rounded MT Bold,Arial Rounded MT Bold_MSFontService,sans-serif" font-weight="700" font-size="32.039" transform="matrix(0.653891 0.370732 -0.370732 0.653891 116.211 399)">E</text><text fill="#F9F9F9" font-family="Arial Rounded MT Bold,Arial Rounded MT Bold_MSFontService,sans-serif" font-weight="700" font-size="32.039" transform="matrix(0.682112 0.315815 -0.315815 0.682112 130.182 407)">A</text><text fill="#F9F9F9" font-family="Arial Rounded MT Bold,Arial Rounded MT Bold_MSFontService,sans-serif" font-weight="700" font-size="32.039" transform="matrix(0.706545 0.256536 -0.256536 0.706545 145.91 414)">R</text><text fill="#F9F9F9" font-family="Arial Rounded MT Bold,Arial Rounded MT Bold_MSFontService,sans-serif" font-weight="700" font-size="32.039" transform="matrix(0.725235 0.197614 -0.197614 0.725235 162.209 420)">S</text><text fill="#F9F9F9" font-family="Arial Rounded MT Bold,Arial Rounded MT Bold_MSFontService,sans-serif" font-weight="700" font-size="32.039" transform="matrix(0.741713 0.121975 -0.121975 0.741713 183.614 425)">e</text><text fill="#F9F9F9" font-family="Arial Rounded MT Bold,Arial Rounded MT Bold_MSFontService,sans-serif" font-weight="700" font-size="32.039" transform="matrix(0.746955 0.0841072 -0.0841072 0.746955 196.562 427)">.</text><text fill="#F9F9F9" font-family="Arial Rounded MT Bold,Arial Rounded MT Bold_MSFontService,sans-serif" font-weight="700" font-size="32.039" transform="matrix(0.750414 0.0435422 -0.0435422 0.750414 204.045 428)">V</text><text fill="#F9F9F9" font-family="Arial Rounded MT Bold,Arial Rounded MT Bold_MSFontService,sans-serif" font-weight="700" font-size="32.039" transform="matrix(0.751662 0.00454372 -0.00454372 0.751662 217.585 429)">.</text><text fill="#F9F9F9" font-family="Arial Rounded MT Bold,Arial Rounded MT Bold_MSFontService,sans-serif" font-weight="700" font-size="32.039" transform="matrix(0.749939 -0.0510727 0.0510727 0.749939 231.147 429)"></text><text fill="#F9F9F9" font-family="Arial Rounded MT Bold,Arial Rounded MT Bold_MSFontService,sans-serif" font-weight="700" font-size="32.039" transform="matrix(0.74158 -0.122781 0.122781 0.74158 249.159 427)">T</text><text fill="#F9F9F9" font-family="Arial Rounded MT Bold,Arial Rounded MT Bold_MSFontService,sans-serif" font-weight="700" font-size="32.039" transform="matrix(0.729081 -0.182913 0.182913 0.729081 264.031 425)">U</text><text fill="#F9F9F9" font-family="Arial Rounded MT Bold,Arial Rounded MT Bold_MSFontService,sans-serif" font-weight="700" font-size="32.039" transform="matrix(0.702868 -0.266445 0.266445 0.702868 287.531 419)">B</text><text fill="#F9F9F9" font-family="Arial Rounded MT Bold,Arial Rounded MT Bold_MSFontService,sans-serif" font-weight="700" font-size="32.039" transform="matrix(0.680239 -0.319831 0.319831 0.680239 303.712 413)">e</text><text fill="#F9F9F9" font-family="Arial Rounded MT Bold,Arial Rounded MT Bold_MSFontService,sans-serif" font-weight="700" font-size="32.039" transform="matrix(0.659786 -0.360138 0.360138 0.659786 316.64 406)">r</text><text fill="#F9F9F9" font-family="Arial Rounded MT Bold,Arial Rounded MT Bold_MSFontService,sans-serif" font-weight="700" font-size="32.039" transform="matrix(0.644568 -0.386715 0.386715 0.644568 325.604 401)">l</text><text fill="#F9F9F9" font-family="Arial Rounded MT Bold,Arial Rounded MT Bold_MSFontService,sans-serif" font-weight="700" font-size="32.039" transform="matrix(0.632142 -0.406709 0.406709 0.632142 331.202 398)">i</text><text fill="#F9F9F9" font-family="Arial Rounded MT Bold,Arial Rounded MT Bold_MSFontService,sans-serif" font-weight="700" font-size="32.039" transform="matrix(0.610532 -0.438482 0.438482 0.610532 336.751 395)">n</text></g></svg>