<?xml version="1.0" encoding="utf-8"?>
<!-- Generator: Adobe Illustrator 28.2.0, SVG Export Plug-In . SVG Version: 6.00 Build 0)  -->
<svg version="1.1" xmlns="http://www.w3.org/2000/svg" xmlns:xlink="http://www.w3.org/1999/xlink" x="0px" y="0px"
	 viewBox="0 0 841.9 85" style="enable-background:new 0 0 841.9 85;" xml:space="preserve">
<style type="text/css">
	.st0{fill:#C50E1F;}
	.st1{fill:#FFFFFF;}
	.st2{fill:#CCFF00;}
	.st3{fill:#7E898F;}
	.st4{fill:#00376C;}
</style>
<g id="Ebene_1">
</g>
<g id="Ebene_3">
	<g>
		<g>
			<g id="RGB_2_">
				<polygon class="st0" points="640.8,18.8 640.8,18.8 664.6,42.5 688.3,42.5 712.1,42.5 688.3,18.8 688.3,18.8 				"/>
				<path class="st1" d="M712.1,42.5L712.1,42.5L712.1,42.5z"/>
				<polygon class="st2" points="688.3,66.3 688.3,66.3 712.1,66.3 735.8,66.3 759.6,42.5 735.8,42.5 712.1,42.5 712.1,42.5 				"/>
				<polygon class="st3" points="807.1,42.5 807.1,66.3 830.8,66.3 807.1,42.5 				"/>
				<polygon class="st1" points="759.6,42.5 759.6,42.5 759.6,42.5 				"/>
				<polygon class="st4" points="783.3,18.8 759.6,42.5 783.3,42.5 807.1,42.5 783.3,18.8 783.3,18.8 783.3,18.8 				"/>
			</g>
			<g id="_x31_04pt_x2C__op_x2C__50spat_2_">
				<path d="M19.1,51.8V27.2l-3.2-0.6v-3.2h6.6c0.7,0,2,0,3.7,0c1.4,0,2.4,0,3,0c3,0,5.4,0.3,7.1,0.8c1.7,0.5,3,1.3,3.7,2.4
					c0.7,1,1.1,2.3,1.1,3.8c0,1.4-0.3,2.6-0.9,3.7c-0.6,1.1-1.4,1.9-2.4,2.6c-1,0.7-2.2,1.1-3.5,1.3c1.8,0,3.4,0.3,4.7,0.9
					c1.4,0.6,2.4,1.4,3.2,2.5c0.8,1.1,1.1,2.4,1.1,4c0,6.5-4.6,9.7-13.7,9.7c-1,0-2.2,0-3.6,0c-1.4,0-2.6,0-3.5,0h-6.7v-2.9
					L19.1,51.8z M29.4,52.5c2.2,0,3.7-0.5,4.7-1.6c1-1.1,1.5-2.7,1.5-4.7c0-1.4-0.2-2.5-0.6-3.4c-0.4-0.8-1-1.4-1.9-1.8
					c-0.9-0.4-2-0.6-3.3-0.6c-1.7,0-2.9,0-3.7,0v11.8C26.5,52.4,27.6,52.5,29.4,52.5z M29.4,37.1c1.7,0,2.9-0.5,3.6-1.5
					c0.8-1,1.1-2.4,1.1-4.3c0-1.8-0.4-3.1-1.2-3.9c-0.8-0.8-2.1-1.2-4-1.2c-0.4,0-1,0-1.6,0.1c-0.6,0.1-1.1,0.1-1.3,0.2V37
					C26.6,37.1,27.7,37.1,29.4,37.1z"/>
				<path d="M48.8,37.1c1-1.8,2.3-3.2,4.1-4.1c1.8-1,3.8-1.4,6.1-1.4c2.9,0,5.2,0.7,6.8,2.1c1.6,1.4,2.4,3.3,2.5,5.9
					c0,1.8-0.1,3.1-0.3,4.1H54.4c0.2,2.6,0.8,4.5,1.9,5.7c1.1,1.2,2.5,1.9,4.4,1.9c1,0,2.1-0.2,3.3-0.5c1.1-0.4,2.1-0.8,2.8-1.2
					l1.2,2.6c-0.5,0.5-1.2,1-2.2,1.6c-1,0.5-2,1-3.3,1.3c-1.2,0.4-2.5,0.5-3.7,0.5c-2.6,0-4.7-0.5-6.4-1.5c-1.7-1-2.9-2.4-3.7-4.1
					c-0.8-1.8-1.2-3.8-1.2-6.2C47.3,41,47.8,38.9,48.8,37.1z M61.5,40.7l0-1.5c0-1.5-0.3-2.6-0.8-3.5c-0.5-0.8-1.3-1.2-2.5-1.2
					c-0.8,0-1.5,0.2-2,0.5c-0.6,0.3-1,1-1.3,1.9c-0.3,0.9-0.5,2.2-0.6,3.8H61.5z"/>
				<path d="M75,52.2V36.6l-2.5-0.8v-3.3l7-1h0.1l1.2,0.9v1.2L80.7,37h0.1c0.2-0.6,0.6-1.4,1.3-2.2c0.7-0.9,1.6-1.6,2.6-2.3
					c1.1-0.6,2.2-1,3.5-1c0.3,0,0.7,0,0.9,0.1c0.3,0.1,0.5,0.1,0.7,0.2v7.3c-0.5-0.4-1-0.7-1.5-0.9c-0.5-0.2-1.1-0.3-1.8-0.3
					c-1,0-2,0.1-2.8,0.4c-0.9,0.3-1.5,0.6-2,1v12.9l4.9,0.4v2.6H72.3v-2.7L75,52.2z"/>
				<path d="M95,52.1V24.4L92,23.8v-2.6l8.4-1h0.1l1.3,0.9v30.9l2.8,0.4v2.8H92.3v-2.8L95,52.1z"/>
				<path d="M111.5,52.1V36l-2.8-0.9V32l8.2-1h0.1l1.3,0.9v20.2l2.7,0.4v2.8h-12.3v-2.8L111.5,52.1z M110.9,22.2
					c0.3-0.6,0.8-1.1,1.4-1.5c0.6-0.4,1.3-0.6,2.2-0.6h0c0.8,0,1.5,0.2,2,0.5c0.6,0.3,1,0.7,1.3,1.3c0.3,0.5,0.4,1.1,0.4,1.8
					c0,1.2-0.4,2.2-1.1,2.9c-0.7,0.8-1.8,1.1-3.1,1.1h0c-0.7,0-1.3-0.2-1.9-0.5c-0.5-0.3-1-0.7-1.3-1.2c-0.3-0.5-0.5-1.1-0.5-1.8
					C110.4,23.5,110.6,22.8,110.9,22.2z"/>
				<path d="M127.7,52.2V36.6l-2.6-0.8v-3.4l7.5-1h0.1l1.1,0.9v1.5l0,1c1-0.9,2.2-1.7,3.8-2.3c1.5-0.6,3.1-1,4.7-1
					c1.7,0,3.1,0.3,4.1,0.9c1,0.6,1.7,1.6,2.1,2.9c0.4,1.3,0.7,3.2,0.7,5.5v11.4l2.5,0.4v2.7h-11.6v-2.7l2.2-0.4V40.8
					c0-1.3-0.1-2.4-0.3-3.2c-0.2-0.8-0.5-1.3-1-1.7c-0.5-0.4-1.2-0.5-2-0.5c-0.8,0-1.6,0.2-2.4,0.5c-0.8,0.4-1.5,0.8-2.1,1.3v14.9
					l2.4,0.4v2.7h-11.7v-2.7L127.7,52.2z"/>
				<path d="M172.3,27.2l-2.7-0.6v-3h13.6v3l-3.5,0.6v15.5c0,3.3,0.6,5.7,1.7,7.3c1.1,1.6,2.8,2.4,5,2.4c2.2,0,3.9-0.8,4.9-2.5
					c1.1-1.7,1.6-4,1.6-7V27.2l-3.6-0.6v-3h10.9v3l-2.8,0.6v15.3c0,3-0.5,5.4-1.5,7.3c-1,1.9-2.4,3.3-4.2,4.2
					c-1.8,0.9-3.9,1.3-6.3,1.3c-3,0-5.4-0.5-7.4-1.4c-1.9-0.9-3.4-2.3-4.3-4.3c-0.9-1.9-1.4-4.5-1.4-7.6V27.2z"/>
				<path d="M205.3,52.2V36.6l-2.6-0.8v-3.4l7.5-1h0.1l1.1,0.9v1.5l0,1c1-0.9,2.2-1.7,3.8-2.3c1.5-0.6,3.1-1,4.7-1
					c1.7,0,3.1,0.3,4.1,0.9c1,0.6,1.7,1.6,2.1,2.9c0.4,1.3,0.7,3.2,0.7,5.5v11.4l2.5,0.4v2.7h-11.6v-2.7l2.2-0.4V40.8
					c0-1.3-0.1-2.4-0.3-3.2c-0.2-0.8-0.5-1.3-1-1.7c-0.5-0.4-1.2-0.5-2-0.5c-0.8,0-1.6,0.2-2.4,0.5c-0.8,0.4-1.5,0.8-2.1,1.3v14.9
					l2.4,0.4v2.7h-11.7v-2.7L205.3,52.2z"/>
				<path d="M236.2,52.1V36l-2.8-0.9V32l8.2-1h0.1l1.3,0.9v20.2l2.7,0.4v2.8h-12.3v-2.8L236.2,52.1z M235.6,22.2
					c0.3-0.6,0.8-1.1,1.4-1.5c0.6-0.4,1.3-0.6,2.2-0.6h0c0.8,0,1.5,0.2,2,0.5c0.6,0.3,1,0.7,1.3,1.3c0.3,0.5,0.4,1.1,0.4,1.8
					c0,1.2-0.4,2.2-1.1,2.9c-0.7,0.8-1.8,1.1-3.1,1.1h0c-0.7,0-1.3-0.2-1.9-0.5c-0.5-0.3-1-0.7-1.3-1.2c-0.3-0.5-0.5-1.1-0.5-1.8
					C235.2,23.5,235.3,22.8,235.6,22.2z"/>
				<path d="M247.4,34.3v-2.7h12.1v2.7l-2.8,0.5l3.6,10.9l1.2,4.3l1-4.2l3.4-11l-2.7-0.5v-2.7h9.8v2.7l-2.2,0.5l-7.8,20.5h-5.5
					l-8.5-20.5L247.4,34.3z"/>
				<path d="M276.1,37.1c1-1.8,2.3-3.2,4.1-4.1c1.8-1,3.8-1.4,6.1-1.4c2.9,0,5.2,0.7,6.8,2.1c1.6,1.4,2.4,3.3,2.5,5.9
					c0,1.8-0.1,3.1-0.3,4.1h-13.5c0.2,2.6,0.8,4.5,1.9,5.7c1.1,1.2,2.5,1.9,4.4,1.9c1,0,2.1-0.2,3.3-0.5c1.1-0.4,2.1-0.8,2.8-1.2
					l1.2,2.6c-0.5,0.5-1.2,1-2.2,1.6c-1,0.5-2,1-3.3,1.3c-1.2,0.4-2.5,0.5-3.7,0.5c-2.6,0-4.7-0.5-6.4-1.5c-1.7-1-2.9-2.4-3.7-4.1
					c-0.8-1.8-1.2-3.8-1.2-6.2C274.6,41,275.1,38.9,276.1,37.1z M288.8,40.7l0-1.5c0-1.5-0.3-2.6-0.8-3.5c-0.5-0.8-1.3-1.2-2.5-1.2
					c-0.8,0-1.5,0.2-2,0.5c-0.6,0.3-1,1-1.3,1.9c-0.3,0.9-0.5,2.2-0.6,3.8H288.8z"/>
				<path d="M302.3,52.2V36.6l-2.5-0.8v-3.3l7-1h0.1l1.2,0.9v1.2L308,37h0.1c0.2-0.6,0.6-1.4,1.3-2.2c0.7-0.9,1.6-1.6,2.6-2.3
					c1.1-0.6,2.2-1,3.5-1c0.3,0,0.7,0,0.9,0.1c0.3,0.1,0.5,0.1,0.7,0.2v7.3c-0.5-0.4-1-0.7-1.5-0.9c-0.5-0.2-1.1-0.3-1.8-0.3
					c-1,0-2,0.1-2.8,0.4c-0.9,0.3-1.5,0.6-2,1v12.9l4.9,0.4v2.6h-14.4v-2.7L302.3,52.2z"/>
				<path d="M325.5,48.1l1.1,3.1c0.2,0.3,0.7,0.6,1.4,0.9c0.7,0.3,1.5,0.4,2.3,0.4c1.2,0,2.1-0.2,2.7-0.7c0.6-0.5,0.9-1.1,0.9-1.9
					c0-0.6-0.2-1.1-0.7-1.5c-0.4-0.5-1-0.9-1.7-1.2c-0.7-0.4-1.8-0.8-3.1-1.4l-1.1-0.5c-1.9-0.8-3.4-1.8-4.3-2.9
					c-0.9-1.1-1.4-2.5-1.4-4.3c0-1.2,0.4-2.4,1.1-3.3c0.8-1,1.9-1.8,3.3-2.3c1.4-0.6,3.1-0.8,5-0.8c1.3,0,2.5,0.1,3.4,0.3
					c0.9,0.2,2,0.4,3.1,0.7c0.6,0.2,1.1,0.3,1.5,0.4v5.5h-3.8l-1.1-2.9c-0.2-0.3-0.5-0.5-1-0.8c-0.5-0.2-1.2-0.3-1.9-0.3
					c-1.1,0-2,0.2-2.6,0.7c-0.6,0.5-0.9,1-0.9,1.8c0,0.6,0.2,1.1,0.6,1.6c0.4,0.4,0.9,0.8,1.4,1.1c0.6,0.3,1.4,0.7,2.5,1.1l1,0.4
					c1.5,0.6,2.8,1.3,3.8,1.9c1,0.6,1.8,1.4,2.5,2.3c0.7,0.9,1,2.1,1,3.4c0,1.3-0.4,2.5-1.1,3.5c-0.7,1-1.8,1.9-3.3,2.5
					c-1.5,0.6-3.3,0.9-5.4,0.9c-1.5,0-2.9-0.1-4.1-0.4c-1.2-0.3-2.5-0.6-3.9-1c-0.3-0.1-0.7-0.2-1.1-0.3v-5.4H325.5z"/>
				<path d="M347,52.1V36l-2.8-0.9V32l8.2-1h0.1l1.3,0.9v20.2l2.7,0.4v2.8h-12.3v-2.8L347,52.1z M346.4,22.2
					c0.3-0.6,0.8-1.1,1.4-1.5c0.6-0.4,1.3-0.6,2.2-0.6h0c0.8,0,1.5,0.2,2,0.5c0.6,0.3,1,0.7,1.3,1.3c0.3,0.5,0.4,1.1,0.4,1.8
					c0,1.2-0.4,2.2-1.1,2.9c-0.7,0.8-1.8,1.1-3.1,1.1h0c-0.7,0-1.3-0.2-1.9-0.5c-0.5-0.3-1-0.7-1.3-1.2c-0.3-0.5-0.5-1.1-0.5-1.8
					C345.9,23.5,346.1,22.8,346.4,22.2z"/>
				<path d="M359.2,35.1v-2.4c0.3-0.1,0.8-0.3,1.4-0.6c0.6-0.3,1-0.4,1-0.5c0.5-0.5,1-1.3,1.3-2.1c0.3-0.6,0.5-1.3,0.8-2.1
					c0.3-0.9,0.5-1.6,0.7-2.3h3.9l0.2,6.7h6.3v3.5h-6.2v11.1c0,1.6,0,2.7,0.1,3.3c0.1,0.6,0.2,1,0.5,1.2c0.3,0.2,0.7,0.3,1.4,0.3h0
					c1.2,0,2.5-0.2,3.9-0.6h0l0.9,2.6c-0.5,0.4-1.2,0.8-2.1,1.1c-0.9,0.4-1.8,0.6-2.9,0.9c-1.1,0.2-2.1,0.3-3.1,0.3h0
					c-1.9,0-3.3-0.4-4.2-1.3c-0.9-0.8-1.4-2.1-1.4-3.9V35.1H359.2z"/>
				<path d="M381.2,60.2c0.2,0.1,0.6,0.3,1.3,0.4c0.6,0.1,1.2,0.2,1.8,0.2c1.4,0,2.5-0.4,3.4-1.3c0.9-0.8,1.8-2.3,2.5-4.2h-2.7
					l-7.8-20.5l-1.9-0.5v-2.7h12.4v2.7l-2.9,0.5l3.6,11.6l1.3,4.4l1.1-4.4l3.3-11.6l-2.6-0.5v-2.7h9.6v2.7l-2,0.5
					c-1.2,3.8-2.7,8-4.4,12.8c-1.7,4.8-2.7,7.5-2.9,8.1c-0.8,2.2-1.7,4.1-2.6,5.5c-0.9,1.4-2,2.5-3.1,3.3c-1.2,0.8-2.6,1.1-4.2,1.1
					c-0.6,0-1.1,0-1.8-0.1c-0.6-0.1-1.1-0.2-1.3-0.3V60.2z"/>
				<path d="M420.9,51.9l9.6-28.4h7.4l9.7,28.4l2.4,0.5v2.8h-13.2v-2.8l3-0.5l-1.5-5.2h-10.5l-1.5,5.2l3.3,0.5v2.8h-11.2l0-2.8
					L420.9,51.9z M437.3,43.6l-3.8-12.7l-0.6-2.9l-0.6,2.9l-3.6,12.7H437.3z"/>
				<path d="M455.9,52.1V24.4l-3.1-0.5v-2.6l8.4-1h0.1l1.3,0.9v30.9l2.8,0.4v2.8h-12.3v-2.8L455.9,52.1z"/>
				<path d="M472.1,52.1V24.4l-3.1-0.5v-2.6l8.4-1h0.1l1.3,0.9v30.9l2.8,0.4v2.8h-12.3v-2.8L472.1,52.1z"/>
				<path d="M488.5,52.1V36l-2.8-0.9V32l8.2-1h0.1l1.3,0.9v20.2l2.7,0.4v2.8h-12.3v-2.8L488.5,52.1z M488,22.2
					c0.3-0.6,0.8-1.1,1.4-1.5c0.6-0.4,1.3-0.6,2.2-0.6h0c0.8,0,1.5,0.2,2,0.5c0.6,0.3,1,0.7,1.3,1.3c0.3,0.5,0.4,1.1,0.4,1.8
					c0,1.2-0.4,2.2-1.1,2.9c-0.7,0.8-1.8,1.1-3.1,1.1h0c-0.7,0-1.3-0.2-1.9-0.5c-0.5-0.3-1-0.7-1.3-1.2c-0.3-0.5-0.5-1.1-0.5-1.8
					C487.5,23.5,487.7,22.8,488,22.2z"/>
				<path d="M515.3,39.5c0-0.8-0.1-1.5-0.3-2c-0.2-0.5-0.7-0.9-1.3-1.1c-0.6-0.2-1.5-0.4-2.6-0.4c-1.4,0-2.7,0.1-3.8,0.4
					c-1.1,0.3-2.3,0.6-3.5,1h0l-1.4-2.5c0.5-0.4,1.2-0.8,2.3-1.4c1.1-0.5,2.3-1,3.7-1.4c1.4-0.4,2.9-0.6,4.4-0.6
					c2.2,0,4,0.3,5.2,0.8c1.3,0.5,2.2,1.4,2.7,2.6s0.8,2.8,0.8,4.8V52h2.3v2.7c-0.7,0.2-1.6,0.3-2.7,0.5c-1.1,0.2-2,0.2-2.8,0.2
					c-0.7,0-1.3-0.1-1.7-0.2c-0.4-0.1-0.7-0.4-0.8-0.7c-0.2-0.3-0.3-0.8-0.3-1.5v-0.6c-0.7,0.8-1.6,1.5-2.8,2.1
					c-1.2,0.6-2.5,0.9-4,0.9c-1.3,0-2.6-0.3-3.7-0.8c-1.1-0.6-2-1.4-2.6-2.4c-0.7-1.1-1-2.4-1-3.9c0-2.6,1.2-4.6,3.7-5.9
					c2.4-1.3,5.8-2,10.2-2V39.5z M515.3,43c-2.3,0-4,0.4-5,1.2c-1,0.8-1.6,1.9-1.6,3.1c0,1.3,0.3,2.3,0.9,3c0.6,0.7,1.4,1,2.4,1
					c0.5,0,1.1-0.1,1.7-0.4c0.6-0.3,1.2-0.6,1.6-1V43z"/>
				<path d="M530.4,52.2V36.6l-2.6-0.8v-3.4l7.5-1h0.1l1.1,0.9v1.5l0,1c1-0.9,2.2-1.7,3.8-2.3c1.5-0.6,3.1-1,4.7-1
					c1.7,0,3.1,0.3,4.1,0.9c1,0.6,1.7,1.6,2.1,2.9c0.4,1.3,0.7,3.2,0.7,5.5v11.4l2.5,0.4v2.7h-11.6v-2.7l2.2-0.4V40.8
					c0-1.3-0.1-2.4-0.3-3.2c-0.2-0.8-0.5-1.3-1-1.7c-0.5-0.4-1.2-0.5-2-0.5c-0.8,0-1.6,0.2-2.4,0.5c-0.8,0.4-1.5,0.8-2.1,1.3v14.9
					l2.4,0.4v2.7H528v-2.7L530.4,52.2z"/>
				<path d="M572.8,31.8c0.8,0.2,1.7,0.4,2.7,0.7c0.7,0.2,1.2,0.3,1.6,0.4l-0.3,7.1h-4.2l-1.1-4.2c-0.1-0.4-0.4-0.7-0.8-0.8
					c-0.4-0.2-0.9-0.3-1.4-0.3c-2.9,0-4.3,2.6-4.3,7.9c0,1.9,0.2,3.5,0.7,4.8c0.5,1.3,1.1,2.3,1.9,2.9c0.8,0.6,1.8,1,2.8,1
					c1.2,0,2.3-0.1,3.2-0.4c0.9-0.3,1.8-0.7,2.5-1.1l1.1,2.4c-0.4,0.5-1.1,1-1.9,1.5c-0.8,0.5-1.8,0.9-3,1.3
					c-1.1,0.4-2.3,0.5-3.6,0.5c-2.5,0-4.6-0.5-6.2-1.5c-1.6-1-2.9-2.3-3.6-4.1c-0.8-1.7-1.2-3.7-1.2-6c0-2.4,0.5-4.5,1.5-6.4
					c1-1.8,2.4-3.3,4.3-4.3c1.8-1,4-1.5,6.4-1.5C571,31.5,572,31.6,572.8,31.8z"/>
				<path d="M582.3,37.1c1-1.8,2.3-3.2,4.1-4.1c1.8-1,3.8-1.4,6.1-1.4c2.9,0,5.2,0.7,6.8,2.1c1.6,1.4,2.4,3.3,2.5,5.9
					c0,1.8-0.1,3.1-0.3,4.1h-13.5c0.2,2.6,0.8,4.5,1.9,5.7c1.1,1.2,2.5,1.9,4.4,1.9c1,0,2.1-0.2,3.3-0.5c1.1-0.4,2.1-0.8,2.8-1.2
					l1.2,2.6c-0.5,0.5-1.2,1-2.2,1.6c-1,0.5-2,1-3.3,1.3c-1.2,0.4-2.5,0.5-3.7,0.5c-2.6,0-4.7-0.5-6.4-1.5c-1.7-1-2.9-2.4-3.7-4.1
					c-0.8-1.8-1.2-3.8-1.2-6.2C580.8,41,581.3,38.9,582.3,37.1z M595,40.7l0-1.5c0-1.5-0.3-2.6-0.8-3.5s-1.3-1.2-2.5-1.2
					c-0.8,0-1.5,0.2-2,0.5c-0.6,0.3-1,1-1.3,1.9c-0.3,0.9-0.5,2.2-0.6,3.8H595z"/>
			</g>
		</g>
	</g>
</g>
</svg>
